<?xml version="1.0" encoding="UTF-8"?><svg id="Lager_1" xmlns="http://www.w3.org/2000/svg" viewBox="0 0 433.55 169.81"><defs><style>.cls-1,.cls-2{fill:#fff;}.cls-3,.cls-4,.cls-5{fill:none;}.cls-3,.cls-4,.cls-2{stroke:#1d1d1b;stroke-miterlimit:10;}.cls-4{stroke-dasharray:0 0 4.1 1.37;}.cls-6{fill:#1d1d1b;}</style></defs><rect class="cls-2" x="17.53" y="67" width="12.84" height="12.84"/><rect class="cls-2" x="30.37" y="67" width="12.84" height="12.84"/><rect class="cls-2" x="43.21" y="67" width="12.84" height="12.84"/><rect class="cls-2" x="56.05" y="67" width="12.84" height="12.84"/><rect class="cls-2" x="68.88" y="67" width="12.84" height="12.84"/><rect class="cls-2" x="81.72" y="67" width="12.84" height="12.84"/><rect class="cls-2" x="94.56" y="67" width="12.84" height="12.84"/><rect class="cls-2" x="107.4" y="67" width="12.84" height="12.84"/><rect class="cls-2" x="120.24" y="67" width="12.84" height="12.84"/><rect class="cls-2" x="133.07" y="67" width="12.84" height="12.84"/><rect class="cls-2" x="145.91" y="67" width="12.84" height="12.84"/><rect class="cls-2" x="158.75" y="67" width="12.84" height="12.84"/><rect class="cls-2" x="171.59" y="67" width="12.84" height="12.84"/><rect class="cls-2" x="184.42" y="67" width="12.84" height="12.84"/><rect class="cls-2" x="197.26" y="67" width="12.84" height="12.84"/><rect class="cls-2" x="210.1" y="67" width="12.84" height="12.84"/><rect class="cls-2" x="222.94" y="67" width="12.84" height="12.84"/><rect class="cls-2" x="235.78" y="67" width="12.84" height="12.84"/><rect class="cls-2" x="248.61" y="67" width="12.84" height="12.84"/><rect class="cls-2" x="261.45" y="67" width="12.84" height="12.84"/><rect class="cls-2" x="274.29" y="67" width="12.84" height="12.84"/><rect class="cls-1" x="287.13" y="67" width="12.84" height="12.84"/><polyline class="cls-3" points="299.97 76.84 299.97 79.84 296.97 79.84"/><line class="cls-4" x1="295.6" y1="79.84" x2="290.81" y2="79.84"/><polyline class="cls-3" points="290.13 79.84 287.13 79.84 287.13 76.84"/><line class="cls-4" x1="287.13" y1="75.47" x2="287.13" y2="70.68"/><polyline class="cls-3" points="287.13 70 287.13 67 290.13 67"/><line class="cls-4" x1="291.49" y1="67" x2="296.28" y2="67"/><polyline class="cls-3" points="296.97 67 299.97 67 299.97 70"/><line class="cls-4" x1="299.97" y1="71.37" x2="299.97" y2="76.15"/><rect class="cls-1" x="299.97" y="67" width="12.84" height="12.84"/><polyline class="cls-3" points="312.8 76.84 312.8 79.84 309.8 79.84"/><line class="cls-4" x1="308.44" y1="79.84" x2="303.65" y2="79.84"/><polyline class="cls-3" points="302.97 79.84 299.97 79.84 299.97 76.84"/><line class="cls-4" x1="299.97" y1="75.47" x2="299.97" y2="70.68"/><polyline class="cls-3" points="299.97 70 299.97 67 302.97 67"/><line class="cls-4" x1="304.33" y1="67" x2="309.12" y2="67"/><polyline class="cls-3" points="309.8 67 312.8 67 312.8 70"/><line class="cls-4" x1="312.8" y1="71.37" x2="312.8" y2="76.15"/><rect class="cls-1" x="312.8" y="67" width="12.84" height="12.84"/><polyline class="cls-3" points="325.64 76.84 325.64 79.84 322.64 79.84"/><line class="cls-4" x1="321.27" y1="79.84" x2="316.49" y2="79.84"/><polyline class="cls-3" points="315.8 79.84 312.8 79.84 312.8 76.84"/><line class="cls-4" x1="312.8" y1="75.47" x2="312.8" y2="70.68"/><polyline class="cls-3" points="312.8 70 312.8 67 315.8 67"/><line class="cls-4" x1="317.17" y1="67" x2="321.96" y2="67"/><polyline class="cls-3" points="322.64 67 325.64 67 325.64 70"/><line class="cls-4" x1="325.64" y1="71.37" x2="325.64" y2="76.15"/><circle class="cls-2" cx="23.95" cy="73.42" r="3.48"/><circle class="cls-2" cx="36.79" cy="73.42" r="3.48"/><circle class="cls-2" cx="49.63" cy="73.42" r="3.48"/><circle class="cls-2" cx="62.47" cy="73.42" r="3.48"/><circle class="cls-2" cx="75.3" cy="73.42" r="3.48"/><circle class="cls-2" cx="88.14" cy="73.42" r="3.48"/><circle class="cls-2" cx="100.98" cy="73.42" r="3.48"/><circle class="cls-2" cx="113.82" cy="73.42" r="3.48"/><circle class="cls-2" cx="126.65" cy="73.42" r="3.48"/><circle class="cls-2" cx="139.49" cy="73.42" r="3.48"/><circle class="cls-2" cx="152.33" cy="73.42" r="3.48"/><path class="cls-3" d="m17.53,62l2.53-2.53c1.07-1.07,2.51-1.67,4.02-1.67h55.21c1.55,0,3.04-.62,4.14-1.71l2.94-2.94,2.73,2.73c1.01,1.01,2.39,1.58,3.82,1.58h58.14c1.68,0,3.29.64,4.51,1.79l3.17,2.98"/><path class="cls-6" d="m72.44,47.7c0-.44.3-.76.72-.76s.71.31.71.76-.28.76-.72.76c-.42,0-.71-.32-.71-.76Z"/><path class="cls-6" d="m75.03,47.24c.31.2.86.42,1.39.42.77,0,1.13-.38,1.13-.86,0-.5-.3-.78-1.08-1.07-1.04-.37-1.54-.95-1.54-1.64,0-.94.76-1.7,2-1.7.59,0,1.1.17,1.43.36l-.26.77c-.23-.14-.65-.34-1.19-.34-.62,0-.97.36-.97.79,0,.48.35.7,1.1.98,1.01.38,1.52.89,1.52,1.75,0,1.02-.79,1.74-2.17,1.74-.64,0-1.22-.16-1.63-.4l.26-.8Z"/><path class="cls-6" d="m81.11,40.89c.01.36-.25.65-.67.65-.37,0-.64-.29-.64-.65s.28-.66.66-.66.65.29.65.66Zm-1.18,7.44v-5.8h1.06v5.8h-1.06Z"/><path class="cls-6" d="m82.08,47.71l2.63-3.42c.25-.31.49-.59.76-.9v-.02h-3.14v-.85h4.43v.66s-2.6,3.37-2.6,3.37c-.24.32-.48.61-.74.91v.02h3.39v.84h-4.71v-.61Z"/><path class="cls-6" d="m88.38,45.61c.02,1.43.94,2.01,1.99,2.01.76,0,1.21-.13,1.61-.3l.18.76c-.37.17-1.01.36-1.93.36-1.79,0-2.85-1.18-2.85-2.93s1.03-3.13,2.72-3.13c1.9,0,2.4,1.67,2.4,2.73,0,.22-.02.38-.04.49h-4.08Zm3.09-.76c.01-.67-.28-1.71-1.46-1.71-1.07,0-1.54.98-1.62,1.71h3.08Z"/><path class="cls-6" d="m96.09,40c-.88,1.18-1.51,2.73-1.51,4.91s.66,3.67,1.51,4.87h-.83c-.76-1-1.57-2.53-1.57-4.87.01-2.36.82-3.9,1.57-4.91h.83Z"/><path class="cls-6" d="m96.57,49.77c.85-1.19,1.51-2.75,1.51-4.91s-.65-3.68-1.51-4.87h.82c.77.98,1.57,2.52,1.57,4.88s-.8,3.87-1.57,4.89h-.82Z"/><path class="cls-3" d="m17.53,32.25l2.53-2.53c1.07-1.07,2.51-1.67,4.02-1.67h95.33c1.55,0,3.04-.62,4.14-1.71l2.94-2.94,2.73,2.73c1.01,1.01,2.39,1.58,3.82,1.58h146.39c1.68,0,3.29.64,4.51,1.79l3.17,2.98"/><path class="cls-6" d="m88.18,13.51c0-.74-.02-1.34-.05-1.9h.95l.05,1h.02c.43-.71,1.12-1.13,2.06-1.13,1.4,0,2.46,1.19,2.46,2.95,0,2.09-1.27,3.12-2.64,3.12-.77,0-1.44-.34-1.79-.91h-.02v3.15h-1.04v-6.28Zm1.04,1.55c0,.16.02.3.05.43.19.73.83,1.24,1.58,1.24,1.12,0,1.76-.91,1.76-2.24,0-1.16-.61-2.16-1.73-2.16-.72,0-1.39.52-1.6,1.31-.04.13-.07.29-.07.43v1Z"/><path class="cls-6" d="m95.01,13.42c0-.68-.01-1.27-.05-1.81h.92l.04,1.14h.05c.26-.78.9-1.27,1.61-1.27.12,0,.2.01.3.04v1c-.11-.02-.22-.04-.36-.04-.74,0-1.27.56-1.42,1.36-.02.14-.05.31-.05.49v3.09h-1.04v-3.99Z"/><path class="cls-6" d="m99.4,14.71c.02,1.43.94,2.01,1.99,2.01.76,0,1.21-.13,1.61-.3l.18.76c-.37.17-1.01.36-1.93.36-1.79,0-2.85-1.18-2.85-2.93s1.03-3.13,2.72-3.13c1.9,0,2.4,1.67,2.4,2.73,0,.22-.02.38-.04.49h-4.08Zm3.09-.76c.01-.67-.28-1.71-1.46-1.71-1.07,0-1.54.98-1.62,1.71h3.08Z"/><path class="cls-6" d="m107.61,13.78v.78h-2.96v-.78h2.96Z"/><path class="cls-6" d="m112.06,17.42l-.08-.73h-.04c-.32.46-.95.86-1.77.86-1.18,0-1.77-.83-1.77-1.67,0-1.4,1.25-2.17,3.49-2.16v-.12c0-.48-.13-1.34-1.32-1.34-.54,0-1.1.17-1.51.43l-.24-.7c.48-.31,1.18-.52,1.91-.52,1.77,0,2.21,1.21,2.21,2.37v2.17c0,.5.02,1,.1,1.39h-.96Zm-.16-2.96c-1.15-.02-2.46.18-2.46,1.31,0,.68.46,1.01,1,1.01.76,0,1.24-.48,1.4-.97.04-.11.06-.23.06-.34v-1.01Z"/><path class="cls-6" d="m114.63,8.9h1.06v8.52h-1.06v-8.52Z"/><path class="cls-6" d="m117.46,8.9h1.06v8.52h-1.06v-8.52Z"/><path class="cls-6" d="m125.54,14.47c0,2.15-1.49,3.08-2.89,3.08-1.57,0-2.78-1.15-2.78-2.99,0-1.94,1.27-3.08,2.88-3.08s2.79,1.21,2.79,2.99Zm-4.61.06c0,1.27.73,2.23,1.76,2.23s1.76-.95,1.76-2.25c0-.98-.49-2.23-1.74-2.23s-1.79,1.15-1.79,2.25Z"/><path class="cls-6" d="m131.02,17.2c-.28.14-.89.34-1.67.34-1.75,0-2.89-1.19-2.89-2.96s1.22-3.08,3.12-3.08c.62,0,1.18.16,1.46.3l-.24.82c-.25-.14-.65-.28-1.22-.28-1.33,0-2.05.98-2.05,2.19,0,1.34.86,2.17,2.02,2.17.6,0,1-.16,1.3-.29l.18.79Z"/><path class="cls-6" d="m135.47,17.42l-.08-.73h-.04c-.32.46-.95.86-1.77.86-1.18,0-1.77-.83-1.77-1.67,0-1.4,1.25-2.17,3.49-2.16v-.12c0-.48-.13-1.34-1.32-1.34-.54,0-1.1.17-1.51.43l-.24-.7c.48-.31,1.18-.52,1.91-.52,1.77,0,2.21,1.21,2.21,2.37v2.17c0,.5.02,1,.1,1.39h-.96Zm-.16-2.96c-1.15-.02-2.46.18-2.46,1.31,0,.68.46,1.01,1,1.01.76,0,1.24-.48,1.4-.97.04-.11.06-.23.06-.34v-1.01Z"/><path class="cls-6" d="m139.26,9.95v1.67h1.51v.8h-1.51v3.13c0,.72.2,1.13.79,1.13.28,0,.48-.04.61-.07l.05.79c-.2.08-.53.14-.94.14-.49,0-.89-.16-1.14-.44-.3-.31-.41-.83-.41-1.51v-3.17h-.9v-.8h.9v-1.39l1.03-.28Z"/><path class="cls-6" d="m142.48,14.71c.02,1.43.94,2.01,1.99,2.01.76,0,1.21-.13,1.61-.3l.18.76c-.37.17-1.01.36-1.93.36-1.79,0-2.85-1.18-2.85-2.93s1.03-3.13,2.72-3.13c1.9,0,2.4,1.67,2.4,2.73,0,.22-.02.38-.04.49h-4.08Zm3.09-.76c.01-.67-.28-1.71-1.46-1.71-1.07,0-1.54.98-1.62,1.71h3.08Z"/><path class="cls-6" d="m152.92,8.9v7.02c0,.52.01,1.1.05,1.5h-.95l-.05-1.01h-.02c-.32.65-1.03,1.14-1.98,1.14-1.4,0-2.48-1.19-2.48-2.95-.01-1.93,1.19-3.12,2.6-3.12.89,0,1.49.42,1.75.89h.02v-3.47h1.06Zm-1.06,5.07c0-.13-.01-.31-.05-.44-.16-.67-.73-1.22-1.52-1.22-1.09,0-1.74.96-1.74,2.24,0,1.18.58,2.15,1.72,2.15.71,0,1.35-.47,1.55-1.26.04-.14.05-.29.05-.46v-1.01Z"/><path class="cls-6" d="m157.07,16.34c.31.2.86.42,1.39.42.77,0,1.13-.38,1.13-.86,0-.5-.3-.78-1.08-1.07-1.04-.37-1.54-.95-1.54-1.64,0-.94.76-1.7,2-1.7.59,0,1.1.17,1.43.36l-.26.77c-.23-.14-.65-.34-1.19-.34-.62,0-.97.36-.97.79,0,.48.35.7,1.1.98,1.01.38,1.52.89,1.52,1.75,0,1.02-.79,1.74-2.17,1.74-.64,0-1.22-.16-1.63-.4l.26-.8Z"/><path class="cls-6" d="m161.97,13.51c0-.74-.02-1.34-.05-1.9h.95l.05,1h.02c.43-.71,1.12-1.13,2.06-1.13,1.4,0,2.46,1.19,2.46,2.95,0,2.09-1.27,3.12-2.64,3.12-.77,0-1.44-.34-1.79-.91h-.02v3.15h-1.04v-6.28Zm1.04,1.55c0,.16.02.3.05.43.19.73.83,1.24,1.58,1.24,1.12,0,1.76-.91,1.76-2.24,0-1.16-.61-2.16-1.73-2.16-.72,0-1.39.52-1.6,1.31-.04.13-.07.29-.07.43v1Z"/><path class="cls-6" d="m172.01,17.42l-.08-.73h-.04c-.32.46-.95.86-1.77.86-1.18,0-1.77-.83-1.77-1.67,0-1.4,1.25-2.17,3.49-2.16v-.12c0-.48-.13-1.34-1.32-1.34-.54,0-1.1.17-1.51.43l-.24-.7c.48-.31,1.18-.52,1.91-.52,1.77,0,2.21,1.21,2.21,2.37v2.17c0,.5.02,1,.1,1.39h-.96Zm-.16-2.96c-1.15-.02-2.46.18-2.46,1.31,0,.68.46,1.01,1,1.01.76,0,1.24-.48,1.4-.97.04-.11.06-.23.06-.34v-1.01Z"/><path class="cls-6" d="m178.72,17.2c-.28.14-.89.34-1.67.34-1.75,0-2.89-1.19-2.89-2.96s1.22-3.08,3.12-3.08c.62,0,1.18.16,1.46.3l-.24.82c-.25-.14-.65-.28-1.22-.28-1.33,0-2.05.98-2.05,2.19,0,1.34.86,2.17,2.02,2.17.6,0,1-.16,1.3-.29l.18.79Z"/><path class="cls-6" d="m180.47,14.71c.02,1.43.94,2.01,1.99,2.01.76,0,1.21-.13,1.61-.3l.18.76c-.37.17-1.01.36-1.93.36-1.79,0-2.85-1.18-2.85-2.93s1.03-3.13,2.72-3.13c1.9,0,2.4,1.67,2.4,2.73,0,.22-.02.38-.04.49h-4.08Zm3.09-.76c.01-.67-.28-1.71-1.46-1.71-1.07,0-1.54.98-1.62,1.71h3.08Z"/><line class="cls-5" x1="175.16" y1="144.1" x2="175.35" y2="143.52"/><line class="cls-3" x1="165.17" y1="106.85" x2="165.17" y2="87.43"/><path class="cls-6" d="m167.46,106.74c0,1.27-1.03,2.29-2.29,2.29s-2.29-1.03-2.29-2.29,1.03-2.29,2.29-2.29,2.29,1.03,2.29,2.29Z"/><polygon class="cls-6" points="168.35 93.34 167.41 93.68 165.17 87.53 162.93 93.68 161.99 93.34 165.17 84.61 168.35 93.34"/><line class="cls-3" x1="23.95" y1="106.85" x2="23.95" y2="87.43"/><path class="cls-6" d="m26.25,106.74c0,1.27-1.03,2.29-2.29,2.29s-2.29-1.03-2.29-2.29,1.03-2.29,2.29-2.29,2.29,1.03,2.29,2.29Z"/><polygon class="cls-6" points="27.13 93.34 26.19 93.68 23.95 87.53 21.71 93.68 20.77 93.34 23.95 84.61 27.13 93.34"/><path class="cls-6" d="m8.4,121.51c0-.44.3-.76.72-.76s.71.31.71.76-.28.76-.72.76c-.42,0-.71-.32-.71-.76Z"/><path class="cls-6" d="m11.09,122.14c.02-.4.05-.98.05-1.5v-7.02h1.04v3.65h.02c.37-.65,1.04-1.07,1.98-1.07,1.44,0,2.46,1.2,2.45,2.96,0,2.07-1.31,3.11-2.6,3.11-.84,0-1.51-.32-1.94-1.09h-.04l-.05.96h-.91Zm1.09-2.33c0,.13.02.26.05.38.2.73.82,1.24,1.58,1.24,1.1,0,1.76-.9,1.76-2.23,0-1.16-.6-2.16-1.73-2.16-.72,0-1.39.49-1.61,1.3-.02.12-.06.26-.06.43v1.04Z"/><path class="cls-6" d="m18.55,119.42c.02,1.43.94,2.01,1.99,2.01.76,0,1.21-.13,1.61-.3l.18.76c-.37.17-1.01.36-1.93.36-1.79,0-2.85-1.18-2.85-2.93s1.03-3.13,2.72-3.13c1.9,0,2.4,1.67,2.4,2.73,0,.22-.02.38-.04.49h-4.08Zm3.09-.76c.01-.67-.28-1.71-1.46-1.71-1.07,0-1.54.98-1.62,1.71h3.08Z"/><path class="cls-6" d="m28.98,116.33c-.02.42-.05.89-.05,1.6v3.37c0,1.33-.26,2.15-.83,2.65-.56.53-1.38.7-2.11.7s-1.46-.17-1.93-.48l.26-.8c.38.24.98.46,1.7.46,1.08,0,1.87-.56,1.87-2.03v-.65h-.02c-.32.54-.95.97-1.85.97-1.44,0-2.47-1.22-2.47-2.83,0-1.97,1.28-3.08,2.61-3.08,1.01,0,1.56.53,1.81,1.01h.02l.05-.88h.92Zm-1.09,2.29c0-.18-.01-.34-.06-.48-.19-.61-.71-1.12-1.48-1.12-1.01,0-1.73.85-1.73,2.19,0,1.14.58,2.09,1.72,2.09.65,0,1.24-.41,1.46-1.08.06-.18.08-.38.08-.56v-1.04Z"/><path class="cls-6" d="m31.78,114.7c.01.36-.25.65-.67.65-.37,0-.64-.29-.64-.65s.28-.66.66-.66.65.29.65.66Zm-1.18,7.44v-5.8h1.06v5.8h-1.06Z"/><path class="cls-6" d="m33.42,117.9c0-.6-.01-1.09-.05-1.57h.94l.06.96h.02c.29-.55.96-1.09,1.92-1.09.8,0,2.05.48,2.05,2.47v3.47h-1.06v-3.35c0-.94-.35-1.71-1.34-1.71-.7,0-1.24.49-1.42,1.08-.05.13-.07.31-.07.49v3.49h-1.06v-4.23Z"/><path class="cls-6" d="m42.37,113.81c-.88,1.18-1.51,2.73-1.51,4.91s.66,3.67,1.51,4.87h-.83c-.76-1-1.57-2.53-1.57-4.87.01-2.36.82-3.9,1.57-4.91h.83Z"/><path class="cls-6" d="m42.85,123.59c.85-1.19,1.51-2.75,1.51-4.91s-.65-3.68-1.51-4.87h.82c.77.98,1.57,2.52,1.57,4.88s-.8,3.87-1.57,4.89h-.82Z"/><path class="cls-6" d="m151.88,121.51c0-.44.3-.76.72-.76s.71.31.71.76-.28.76-.72.76c-.42,0-.71-.32-.71-.76Z"/><path class="cls-6" d="m155.2,119.42c.02,1.43.94,2.01,1.99,2.01.76,0,1.21-.13,1.61-.3l.18.76c-.37.17-1.01.36-1.93.36-1.79,0-2.85-1.18-2.85-2.93s1.03-3.13,2.72-3.13c1.9,0,2.4,1.67,2.4,2.73,0,.22-.02.38-.04.49h-4.08Zm3.09-.76c.01-.67-.28-1.71-1.46-1.71-1.07,0-1.54.98-1.62,1.71h3.08Z"/><path class="cls-6" d="m160.63,117.9c0-.6-.01-1.09-.05-1.57h.94l.06.96h.02c.29-.55.96-1.09,1.92-1.09.8,0,2.05.48,2.05,2.47v3.47h-1.06v-3.35c0-.94-.35-1.71-1.34-1.71-.7,0-1.24.49-1.42,1.08-.05.13-.07.31-.07.49v3.49h-1.06v-4.23Z"/><path class="cls-6" d="m172.3,113.62v7.02c0,.52.01,1.1.05,1.5h-.95l-.05-1.01h-.02c-.32.65-1.03,1.14-1.98,1.14-1.4,0-2.48-1.19-2.48-2.95-.01-1.93,1.19-3.12,2.6-3.12.89,0,1.49.42,1.75.89h.02v-3.47h1.06Zm-1.06,5.07c0-.13-.01-.31-.05-.44-.16-.67-.73-1.22-1.52-1.22-1.09,0-1.74.96-1.74,2.24,0,1.18.58,2.15,1.72,2.15.71,0,1.35-.47,1.55-1.26.04-.14.05-.29.05-.46v-1.01Z"/><path class="cls-6" d="m176.34,113.81c-.88,1.18-1.51,2.73-1.51,4.91s.66,3.67,1.51,4.87h-.83c-.76-1-1.57-2.53-1.57-4.87.01-2.36.82-3.9,1.57-4.91h.83Z"/><path class="cls-6" d="m176.83,123.59c.85-1.19,1.51-2.75,1.51-4.91s-.65-3.68-1.51-4.87h.82c.77.98,1.57,2.52,1.57,4.88s-.8,3.87-1.57,4.89h-.82Z"/><rect class="cls-1" x="325.64" y="67" width="12.84" height="12.84"/><polyline class="cls-3" points="338.48 76.84 338.48 79.84 335.48 79.84"/><line class="cls-4" x1="334.11" y1="79.84" x2="329.32" y2="79.84"/><polyline class="cls-3" points="328.64 79.84 325.64 79.84 325.64 76.84"/><line class="cls-4" x1="325.64" y1="75.47" x2="325.64" y2="70.68"/><polyline class="cls-3" points="325.64 70 325.64 67 328.64 67"/><line class="cls-4" x1="330.01" y1="67" x2="334.79" y2="67"/><polyline class="cls-3" points="335.48 67 338.48 67 338.48 70"/><line class="cls-4" x1="338.48" y1="71.37" x2="338.48" y2="76.15"/><rect class="cls-1" x="338.48" y="67" width="12.84" height="12.84"/><polyline class="cls-3" points="351.32 76.84 351.32 79.84 348.32 79.84"/><line class="cls-4" x1="346.95" y1="79.84" x2="342.16" y2="79.84"/><polyline class="cls-3" points="341.48 79.84 338.48 79.84 338.48 76.84"/><line class="cls-4" x1="338.48" y1="75.47" x2="338.48" y2="70.68"/><polyline class="cls-3" points="338.48 70 338.48 67 341.48 67"/><line class="cls-4" x1="342.85" y1="67" x2="347.63" y2="67"/><polyline class="cls-3" points="348.32 67 351.32 67 351.32 70"/><line class="cls-4" x1="351.32" y1="71.37" x2="351.32" y2="76.15"/><line class="cls-3" x1="286.87" y1="49.77" x2="306.29" y2="49.77"/><path class="cls-6" d="m286.98,52.07c-1.27,0-2.29-1.03-2.29-2.29s1.03-2.29,2.29-2.29,2.29,1.03,2.29,2.29-1.03,2.29-2.29,2.29Z"/><polygon class="cls-6" points="300.38 52.96 300.04 52.01 306.19 49.77 300.04 47.53 300.38 46.59 309.12 49.77 300.38 52.96"/><path class="cls-6" d="m316.15,48.15c0-.68-.01-1.27-.05-1.81h.92l.04,1.14h.05c.26-.78.9-1.27,1.61-1.27.12,0,.2.01.3.04v1c-.11-.02-.22-.04-.36-.04-.74,0-1.27.56-1.42,1.36-.02.14-.05.31-.05.49v3.09h-1.04v-3.99Z"/><path class="cls-6" d="m320.54,49.44c.02,1.43.94,2.01,1.99,2.01.76,0,1.21-.13,1.61-.3l.18.76c-.37.17-1.01.36-1.93.36-1.79,0-2.85-1.18-2.85-2.93s1.03-3.13,2.72-3.13c1.89,0,2.4,1.67,2.4,2.73,0,.22-.02.38-.04.49h-4.08Zm3.09-.76c.01-.67-.28-1.71-1.46-1.71-1.07,0-1.54.98-1.62,1.71h3.08Z"/><path class="cls-6" d="m329.18,52.15l-.08-.73h-.04c-.32.46-.95.86-1.77.86-1.18,0-1.78-.83-1.78-1.67,0-1.4,1.25-2.17,3.49-2.16v-.12c0-.48-.13-1.34-1.32-1.34-.54,0-1.1.17-1.51.43l-.24-.7c.48-.31,1.18-.52,1.91-.52,1.77,0,2.21,1.21,2.21,2.37v2.17c0,.5.02,1,.1,1.39h-.96Zm-.16-2.96c-1.15-.02-2.46.18-2.46,1.31,0,.68.46,1.01,1,1.01.76,0,1.24-.48,1.4-.97.04-.11.06-.23.06-.34v-1.01Z"/><path class="cls-6" d="m331.75,43.63h1.06v8.52h-1.06v-8.52Z"/><path class="cls-6" d="m334.58,43.63h1.06v8.52h-1.06v-8.52Z"/><path class="cls-6" d="m342.67,49.2c0,2.15-1.49,3.08-2.89,3.08-1.57,0-2.78-1.15-2.78-2.99,0-1.94,1.27-3.08,2.88-3.08s2.79,1.21,2.79,2.99Zm-4.61.06c0,1.27.73,2.23,1.76,2.23s1.76-.95,1.76-2.25c0-.98-.49-2.23-1.74-2.23s-1.79,1.15-1.79,2.25Z"/><path class="cls-6" d="m348.14,51.93c-.28.14-.89.34-1.67.34-1.75,0-2.89-1.19-2.89-2.96s1.22-3.08,3.12-3.08c.62,0,1.17.16,1.46.3l-.24.82c-.25-.14-.65-.28-1.22-.28-1.33,0-2.05.98-2.05,2.19,0,1.34.86,2.17,2.02,2.17.6,0,1-.16,1.29-.29l.18.79Z"/><path class="cls-6" d="m352.59,52.15l-.08-.73h-.04c-.32.46-.95.86-1.78.86-1.17,0-1.77-.83-1.77-1.67,0-1.4,1.25-2.17,3.49-2.16v-.12c0-.48-.13-1.34-1.32-1.34-.54,0-1.1.17-1.51.43l-.24-.7c.48-.31,1.18-.52,1.91-.52,1.78,0,2.21,1.21,2.21,2.37v2.17c0,.5.02,1,.1,1.39h-.96Zm-.16-2.96c-1.15-.02-2.46.18-2.46,1.31,0,.68.46,1.01,1,1.01.75,0,1.24-.48,1.4-.97.04-.11.06-.23.06-.34v-1.01Z"/><path class="cls-6" d="m356.39,44.68v1.67h1.51v.8h-1.51v3.13c0,.72.2,1.13.79,1.13.28,0,.48-.04.61-.07l.05.79c-.2.08-.53.14-.94.14-.49,0-.89-.16-1.14-.44-.3-.31-.41-.83-.41-1.51v-3.17h-.9v-.8h.9v-1.39l1.03-.28Z"/><path class="cls-6" d="m360.26,44.71c.01.36-.25.65-.67.65-.37,0-.64-.29-.64-.65s.28-.66.66-.66.65.29.65.66Zm-1.18,7.44v-5.8h1.06v5.8h-1.06Z"/><path class="cls-6" d="m367.15,49.2c0,2.15-1.49,3.08-2.89,3.08-1.57,0-2.78-1.15-2.78-2.99,0-1.94,1.27-3.08,2.88-3.08s2.79,1.21,2.79,2.99Zm-4.61.06c0,1.27.73,2.23,1.76,2.23s1.76-.95,1.76-2.25c0-.98-.49-2.23-1.74-2.23s-1.79,1.15-1.79,2.25Z"/><path class="cls-6" d="m368.48,47.91c0-.6-.01-1.09-.05-1.57h.94l.06.96h.02c.29-.55.96-1.09,1.92-1.09.8,0,2.05.48,2.05,2.47v3.47h-1.06v-3.35c0-.94-.35-1.71-1.34-1.71-.7,0-1.24.49-1.42,1.08-.05.13-.07.31-.07.49v3.49h-1.06v-4.23Z"/><path class="cls-6" d="m377.69,48.15c0-.68-.01-1.27-.05-1.81h.92l.04,1.14h.05c.26-.78.9-1.27,1.61-1.27.12,0,.2.01.3.04v1c-.11-.02-.22-.04-.36-.04-.74,0-1.27.56-1.42,1.36-.02.14-.05.31-.05.49v3.09h-1.04v-3.99Z"/><path class="cls-6" d="m382.08,49.44c.02,1.43.94,2.01,1.99,2.01.76,0,1.21-.13,1.61-.3l.18.76c-.37.17-1.01.36-1.93.36-1.79,0-2.85-1.18-2.85-2.93s1.03-3.13,2.72-3.13c1.89,0,2.4,1.67,2.4,2.73,0,.22-.02.38-.04.49h-4.08Zm3.09-.76c.01-.67-.28-1.71-1.46-1.71-1.07,0-1.54.98-1.62,1.71h3.08Z"/><path class="cls-6" d="m391.46,51.25h-.02c-.31.58-.96,1.03-1.89,1.03-1.36,0-2.46-1.18-2.46-2.94,0-2.17,1.4-3.13,2.63-3.13.9,0,1.5.44,1.79,1.01h.02l.04-.88h1c-.02.49-.04,1-.04,1.6v6.58h-1.05v-3.27Zm0-2.55c0-.14-.01-.31-.05-.44-.16-.65-.72-1.2-1.51-1.2-1.09,0-1.75.92-1.75,2.23,0,1.15.55,2.16,1.71,2.16.68,0,1.27-.42,1.51-1.15.05-.14.08-.35.08-.5v-1.09Z"/><path class="cls-6" d="m399.12,50.56c0,.6.01,1.13.05,1.58h-.94l-.06-.95h-.02c-.28.47-.89,1.08-1.92,1.08-.91,0-2-.5-2-2.54v-3.39h1.06v3.21c0,1.1.34,1.85,1.29,1.85.71,0,1.2-.49,1.39-.96.06-.16.1-.35.1-.54v-3.56h1.06v4.22Z"/><path class="cls-6" d="m402.05,44.71c.01.36-.25.65-.67.65-.37,0-.64-.29-.64-.65s.28-.66.66-.66.65.29.65.66Zm-1.18,7.44v-5.8h1.06v5.8h-1.06Z"/><path class="cls-6" d="m403.68,48.15c0-.68-.01-1.27-.05-1.81h.92l.04,1.14h.05c.26-.78.9-1.27,1.61-1.27.12,0,.2.01.3.04v1c-.11-.02-.22-.04-.36-.04-.74,0-1.27.56-1.42,1.36-.02.14-.05.31-.05.49v3.09h-1.04v-3.99Z"/><path class="cls-6" d="m408.07,49.44c.02,1.43.94,2.01,1.99,2.01.75,0,1.21-.13,1.61-.3l.18.76c-.37.17-1.01.36-1.93.36-1.79,0-2.85-1.18-2.85-2.93s1.03-3.13,2.72-3.13c1.9,0,2.4,1.67,2.4,2.73,0,.22-.02.38-.04.49h-4.08Zm3.09-.76c.01-.67-.28-1.71-1.46-1.71-1.07,0-1.54.98-1.62,1.71h3.08Z"/><path class="cls-6" d="m418.51,43.63v7.02c0,.52.01,1.1.05,1.5h-.95l-.05-1.01h-.02c-.32.65-1.03,1.14-1.98,1.14-1.4,0-2.48-1.19-2.48-2.95-.01-1.93,1.19-3.12,2.6-3.12.89,0,1.49.42,1.75.89h.02v-3.47h1.06Zm-1.06,5.07c0-.13-.01-.31-.05-.44-.16-.67-.73-1.22-1.52-1.22-1.09,0-1.74.96-1.74,2.24,0,1.18.58,2.15,1.72,2.15.71,0,1.35-.47,1.55-1.26.04-.14.05-.29.05-.46v-1.01Z"/><path class="cls-3" d="m288.03,135.24l-2.58,2.53c-1.09,1.07-2.56,1.67-4.1,1.67h-92.03c-1.58,0-3.09.62-4.21,1.71l-2.99,2.94-2.78-2.73c-1.03-1.01-2.43-1.58-3.89-1.58H26.37c-1.71,0-3.35-.64-4.59-1.79l-3.23-2.98"/><path class="cls-6" d="m159.37,158.9c0-.44.3-.76.72-.76s.71.31.71.76-.28.76-.72.76c-.42,0-.71-.32-.71-.76Z"/><path class="cls-6" d="m166.25,159.31c-.28.14-.89.34-1.67.34-1.75,0-2.89-1.19-2.89-2.96s1.22-3.08,3.12-3.08c.62,0,1.18.16,1.46.3l-.24.82c-.25-.14-.65-.28-1.22-.28-1.33,0-2.05.98-2.05,2.19,0,1.34.86,2.17,2.02,2.17.6,0,1-.16,1.3-.29l.18.79Z"/><path class="cls-6" d="m170.7,159.53l-.08-.73h-.04c-.32.46-.95.86-1.77.86-1.18,0-1.77-.83-1.77-1.67,0-1.4,1.25-2.17,3.49-2.16v-.12c0-.48-.13-1.34-1.32-1.34-.54,0-1.1.17-1.51.43l-.24-.7c.48-.31,1.18-.52,1.91-.52,1.77,0,2.21,1.21,2.21,2.37v2.17c0,.5.02,1,.1,1.39h-.96Zm-.16-2.96c-1.15-.02-2.46.18-2.46,1.31,0,.68.46,1.01,1,1.01.76,0,1.24-.48,1.4-.97.04-.11.06-.23.06-.34v-1.01Z"/><path class="cls-6" d="m173.27,155.62c0-.74-.02-1.34-.05-1.9h.95l.05,1h.02c.43-.71,1.12-1.13,2.06-1.13,1.4,0,2.46,1.19,2.46,2.95,0,2.09-1.27,3.12-2.64,3.12-.77,0-1.44-.34-1.79-.91h-.02v3.15h-1.04v-6.28Zm1.04,1.55c0,.16.02.3.05.43.19.73.83,1.24,1.58,1.24,1.12,0,1.76-.91,1.76-2.24,0-1.16-.61-2.16-1.73-2.16-.72,0-1.39.52-1.6,1.31-.04.13-.07.29-.07.43v1Z"/><path class="cls-6" d="m183.31,159.53l-.08-.73h-.04c-.32.46-.95.86-1.77.86-1.18,0-1.77-.83-1.77-1.67,0-1.4,1.25-2.17,3.49-2.16v-.12c0-.48-.13-1.34-1.32-1.34-.54,0-1.1.17-1.51.43l-.24-.7c.48-.31,1.18-.52,1.91-.52,1.77,0,2.21,1.21,2.21,2.37v2.17c0,.5.02,1,.1,1.39h-.96Zm-.16-2.96c-1.15-.02-2.46.18-2.46,1.31,0,.68.46,1.01,1,1.01.76,0,1.24-.48,1.4-.97.04-.11.06-.23.06-.34v-1.01Z"/><path class="cls-6" d="m190.02,159.31c-.28.14-.89.34-1.67.34-1.75,0-2.89-1.19-2.89-2.96s1.22-3.08,3.12-3.08c.62,0,1.18.16,1.46.3l-.24.82c-.25-.14-.65-.28-1.22-.28-1.33,0-2.05.98-2.05,2.19,0,1.34.86,2.17,2.02,2.17.6,0,1-.16,1.3-.29l.18.79Z"/><path class="cls-6" d="m192.43,152.09c.01.36-.25.65-.67.65-.37,0-.64-.29-.64-.65s.28-.66.66-.66.65.29.65.66Zm-1.18,7.44v-5.8h1.06v5.8h-1.06Z"/><path class="cls-6" d="m195.33,152.05v1.67h1.51v.8h-1.51v3.13c0,.72.2,1.13.79,1.13.28,0,.48-.04.61-.07l.05.79c-.2.08-.53.14-.94.14-.49,0-.89-.16-1.14-.44-.3-.31-.41-.83-.41-1.51v-3.17h-.9v-.8h.9v-1.39l1.03-.28Z"/><path class="cls-6" d="m198.53,153.72l1.27,3.43c.13.38.28.84.37,1.19h.02c.11-.35.23-.79.37-1.21l1.15-3.41h1.12l-1.58,4.14c-.76,1.99-1.27,3.01-1.99,3.63-.52.46-1.03.64-1.29.68l-.26-.89c.26-.08.61-.25.92-.52.29-.23.65-.64.89-1.18.05-.11.08-.19.08-.25s-.02-.14-.07-.28l-2.15-5.35h1.15Z"/><path class="cls-6" d="m206.09,151.2c-.88,1.18-1.51,2.73-1.51,4.91s.66,3.67,1.51,4.87h-.83c-.76-1-1.57-2.53-1.57-4.87.01-2.36.82-3.9,1.57-4.91h.83Z"/><path class="cls-6" d="m206.57,160.98c.85-1.19,1.51-2.75,1.51-4.91s-.65-3.68-1.51-4.87h.82c.77.98,1.57,2.52,1.57,4.88s-.8,3.87-1.57,4.89h-.82Z"/></svg>