<?xml version="1.0" encoding="UTF-8"?>
<svg id="Lager_1" data-name="Lager 1" xmlns="http://www.w3.org/2000/svg" viewBox="0 0 386.44 128.99">
  <defs>
    <style>
      .cls-1 {
        letter-spacing: 0em;
      }

      .cls-2, .cls-3 {
        fill: #fff;
      }

      .cls-4 {
        letter-spacing: 0em;
      }

      .cls-5 {
        letter-spacing: 0em;
      }

      .cls-6, .cls-7 {
        fill: none;
      }

      .cls-6, .cls-7, .cls-3 {
        stroke: #1d1d1b;
        stroke-miterlimit: 10;
      }

      .cls-8 {
        letter-spacing: 0em;
      }

      .cls-7 {
        stroke-dasharray: 0 0 4.1 1.37;
      }

      .cls-9 {
        letter-spacing: 0em;
      }

      .cls-10 {
        letter-spacing: 0em;
      }

      .cls-11 {
        letter-spacing: -.01em;
      }

      .cls-12 {
        font-family: MyriadPro-Regular, 'Myriad Pro';
        font-size: 12px;
      }

      .cls-12, .cls-13 {
        fill: #1d1d1b;
      }
    </style>
  </defs>
  <rect class="cls-3" x="33.08" y="67" width="12.84" height="12.84"/>
  <rect class="cls-3" x="45.92" y="67" width="12.84" height="12.84"/>
  <rect class="cls-3" x="58.76" y="67" width="12.84" height="12.84"/>
  <rect class="cls-3" x="71.59" y="67" width="12.84" height="12.84"/>
  <rect class="cls-3" x="84.43" y="67" width="12.84" height="12.84"/>
  <rect class="cls-3" x="97.27" y="67" width="12.84" height="12.84"/>
  <rect class="cls-3" x="110.11" y="67" width="12.84" height="12.84"/>
  <rect class="cls-3" x="122.95" y="67" width="12.84" height="12.84"/>
  <rect class="cls-3" x="135.78" y="67" width="12.84" height="12.84"/>
  <rect class="cls-3" x="148.62" y="67" width="12.84" height="12.84"/>
  <rect class="cls-3" x="161.46" y="67" width="12.84" height="12.84"/>
  <g>
    <rect class="cls-2" x="321.53" y="67" width="12.84" height="12.84"/>
    <g>
      <polyline class="cls-6" points="334.37 76.84 334.37 79.84 331.37 79.84"/>
      <line class="cls-7" x1="330" y1="79.84" x2="325.21" y2="79.84"/>
      <polyline class="cls-6" points="324.53 79.84 321.53 79.84 321.53 76.84"/>
      <line class="cls-7" x1="321.53" y1="75.47" x2="321.53" y2="70.68"/>
      <polyline class="cls-6" points="321.53 70 321.53 67 324.53 67"/>
      <line class="cls-7" x1="325.9" y1="67" x2="330.68" y2="67"/>
      <polyline class="cls-6" points="331.37 67 334.37 67 334.37 70"/>
      <line class="cls-7" x1="334.37" y1="71.37" x2="334.37" y2="76.15"/>
    </g>
  </g>
  <circle class="cls-3" cx="39.5" cy="73.42" r="3.48"/>
  <circle class="cls-3" cx="52.34" cy="73.42" r="3.48"/>
  <circle class="cls-3" cx="65.18" cy="73.42" r="3.48"/>
  <circle class="cls-3" cx="78.01" cy="73.42" r="3.48"/>
  <circle class="cls-3" cx="90.85" cy="73.42" r="3.48"/>
  <circle class="cls-3" cx="103.69" cy="73.42" r="3.48"/>
  <circle class="cls-3" cx="116.53" cy="73.42" r="3.48"/>
  <circle class="cls-3" cx="129.36" cy="73.42" r="3.48"/>
  <circle class="cls-3" cx="142.2" cy="73.42" r="3.48"/>
  <circle class="cls-3" cx="155.04" cy="73.42" r="3.48"/>
  <circle class="cls-3" cx="167.88" cy="73.42" r="3.48"/>
  <path class="cls-6" d="m33.08,62l2.53-2.53c1.07-1.07,2.51-1.67,4.02-1.67h118.89c1.55,0,3.04-.62,4.14-1.71l2.94-2.94,2.73,2.73c1.01,1.01,2.39,1.58,3.82,1.58h140.3c1.68,0,3.29.64,4.51,1.79l3.17,2.98"/>
  <text class="cls-12" transform="translate(151.56 47.26)"><tspan x="0" y="0">.si</tspan><tspan class="cls-9" x="10.04" y="0">z</tspan><tspan x="15.1" y="0">e()</tspan></text>
  <g>
    <line class="cls-6" x1="174.3" y1="73.42" x2="193.72" y2="73.42"/>
    <path class="cls-13" d="m174.41,75.71c-1.27,0-2.29-1.03-2.29-2.29s1.03-2.29,2.29-2.29,2.29,1.03,2.29,2.29-1.03,2.29-2.29,2.29Z"/>
    <polygon class="cls-13" points="187.81 76.6 187.47 75.66 193.62 73.42 187.47 71.18 187.81 70.24 196.55 73.42 187.81 76.6"/>
  </g>
  <g>
    <line class="cls-6" x1="39.5" y1="106.85" x2="39.5" y2="87.43"/>
    <path class="cls-13" d="m41.79,106.74c0,1.27-1.03,2.29-2.29,2.29s-2.29-1.03-2.29-2.29,1.03-2.29,2.29-2.29,2.29,1.03,2.29,2.29Z"/>
    <polygon class="cls-13" points="42.68 93.34 41.74 93.68 39.5 87.53 37.26 93.68 36.32 93.34 39.5 84.61 42.68 93.34"/>
  </g>
  <text class="cls-12" transform="translate(23.32 122.14)"><tspan x="0" y="0">.be</tspan><tspan class="cls-10" x="15.32" y="0">g</tspan><tspan x="21.96" y="0">in()</tspan></text>
  <text class="cls-12" transform="translate(312.45 122.14)"><tspan x="0" y="0">.end()</tspan></text>
  <rect class="cls-3" x="196.55" y="67" width="12.84" height="12.84"/>
  <rect class="cls-3" x="209.38" y="67" width="12.84" height="12.84"/>
  <rect class="cls-3" x="222.22" y="67" width="12.84" height="12.84"/>
  <rect class="cls-3" x="235.06" y="67" width="12.84" height="12.84"/>
  <circle class="cls-3" cx="202.97" cy="73.42" r="3.48"/>
  <circle class="cls-3" cx="215.8" cy="73.42" r="3.48"/>
  <circle class="cls-3" cx="228.64" cy="73.42" r="3.48"/>
  <circle class="cls-3" cx="241.48" cy="73.42" r="3.48"/>
  <g>
    <line class="cls-6" x1="247.93" y1="73.42" x2="267.35" y2="73.42"/>
    <path class="cls-13" d="m248.04,75.71c-1.27,0-2.29-1.03-2.29-2.29s1.03-2.29,2.29-2.29,2.29,1.03,2.29,2.29-1.03,2.29-2.29,2.29Z"/>
    <polygon class="cls-13" points="261.44 76.6 261.1 75.66 267.25 73.42 261.1 71.18 261.44 70.24 270.18 73.42 261.44 76.6"/>
  </g>
  <rect class="cls-3" x="270.18" y="67" width="12.84" height="12.84"/>
  <rect class="cls-3" x="283.01" y="67" width="12.84" height="12.84"/>
  <rect class="cls-3" x="295.85" y="67" width="12.84" height="12.84"/>
  <rect class="cls-3" x="308.69" y="67" width="12.84" height="12.84"/>
  <circle class="cls-3" cx="276.6" cy="73.42" r="3.48"/>
  <circle class="cls-3" cx="289.43" cy="73.42" r="3.48"/>
  <circle class="cls-3" cx="302.27" cy="73.42" r="3.48"/>
  <circle class="cls-3" cx="315.11" cy="73.42" r="3.48"/>
  <g>
    <line class="cls-6" x1="327.95" y1="108.47" x2="327.95" y2="89.05"/>
    <circle class="cls-13" cx="327.95" cy="108.35" r="2.29"/>
    <polygon class="cls-13" points="331.13 94.96 330.19 95.3 327.95 89.14 325.71 95.3 324.77 94.96 327.95 86.22 331.13 94.96"/>
  </g>
  <g>
    <rect class="cls-2" x="20.24" y="67" width="12.84" height="12.84"/>
    <g>
      <polyline class="cls-6" points="33.08 76.84 33.08 79.84 30.08 79.84"/>
      <line class="cls-7" x1="28.71" y1="79.84" x2="23.93" y2="79.84"/>
      <polyline class="cls-6" points="23.24 79.84 20.24 79.84 20.24 76.84"/>
      <line class="cls-7" x1="20.24" y1="75.47" x2="20.24" y2="70.68"/>
      <polyline class="cls-6" points="20.24 70 20.24 67 23.24 67"/>
      <line class="cls-7" x1="24.61" y1="67" x2="29.4" y2="67"/>
      <polyline class="cls-6" points="30.08 67 33.08 67 33.08 70"/>
      <line class="cls-7" x1="33.08" y1="71.37" x2="33.08" y2="76.15"/>
    </g>
  </g>
  <g>
    <line class="cls-6" x1="23.95" y1="39.93" x2="23.95" y2="61.53"/>
    <polygon class="cls-13" points="20.77 55.62 21.71 55.28 23.95 61.44 26.19 55.28 27.13 55.62 23.95 64.36 20.77 55.62"/>
  </g>
  <g>
    <line class="cls-6" x1="29.5" y1="64.36" x2="29.5" y2="42.76"/>
    <polygon class="cls-13" points="32.68 48.67 31.74 49.01 29.5 42.86 27.26 49.01 26.32 48.67 29.5 39.93 32.68 48.67"/>
  </g>
  <text class="cls-12" transform="translate(15.66 18.86)"><tspan x="0" y="0">.push_f</tspan><tspan class="cls-4" x="36.84" y="0">r</tspan><tspan x="40.64" y="0">o</tspan><tspan class="cls-5" x="47.23" y="0">n</tspan><tspan class="cls-8" x="53.84" y="0">t()</tspan><tspan x="0" y="14.4">.pop_f</tspan><tspan class="cls-11" x="32.23" y="14.4">r</tspan><tspan x="36.04" y="14.4">o</tspan><tspan class="cls-1" x="42.62" y="14.4">n</tspan><tspan x="49.24" y="14.4">t()</tspan></text>
  <g>
    <line class="cls-6" x1="325.17" y1="39.93" x2="325.17" y2="61.53"/>
    <polygon class="cls-13" points="321.99 55.62 322.93 55.28 325.17 61.44 327.41 55.28 328.35 55.62 325.17 64.36 321.99 55.62"/>
  </g>
  <g>
    <line class="cls-6" x1="330.72" y1="64.36" x2="330.72" y2="42.76"/>
    <polygon class="cls-13" points="333.9 48.67 332.96 49.01 330.72 42.86 328.48 49.01 327.54 48.67 330.72 39.93 333.9 48.67"/>
  </g>
  <text class="cls-12" transform="translate(317.57 21.24)"><tspan x="0" y="0">.push_back()</tspan><tspan x="0" y="14.4">.pop_back()</tspan></text>
</svg>