<svg xmlns="http://www.w3.org/2000/svg" viewBox="0 0 397.97 227.36"><defs><style>.cls-1{fill:#c6c6c6;}.cls-1,.cls-2,.cls-5,.cls-6,.cls-7,.cls-8{stroke:#1d1d1b;stroke-miterlimit:10;}.cls-1,.cls-5,.cls-6,.cls-7,.cls-8{stroke-width:2px;}.cls-2,.cls-5,.cls-6,.cls-7,.cls-8{fill:none;}.cls-2{stroke-width:4px;}.cls-3,.cls-4{fill:#1d1d1b;}.cls-4{font-size:40px;font-family:MyriadPro-Regular, Myriad Pro;}.cls-6{stroke-dasharray:5.41 5.41;}.cls-7{stroke-dasharray:5.87 5.87;}.cls-8{stroke-dasharray:5 5;}</style></defs><title>Resurs 2</title><g id="Lager_2" data-name="Lager 2"><g id="Lager_1-2" data-name="Lager 1"><rect class="cls-1" x="276.17" y="19.33" width="65.42" height="45.64"/><line class="cls-2" x1="131.61" y1="42.15" x2="296.25" y2="42.15"/><polygon class="cls-3" points="117.49 42.15 137.39 50.28 132.67 42.15 137.39 34.02 117.49 42.15"/><path class="cls-3" d="M295.88,49.67a7.52,7.52,0,1,0-7.52-7.52A7.52,7.52,0,0,0,295.88,49.67Z"/><text class="cls-4" transform="translate(355.07 54.5)">b</text><text class="cls-4" transform="translate(20.7 54.5)">a</text><rect class="cls-1" x="51.89" y="19.33" width="65.42" height="45.64"/><text class="cls-4" transform="translate(63.64 54.81)">42</text><line class="cls-2" x1="130.77" y1="59.09" x2="296.59" y2="111.8"/><polygon class="cls-3" points="117.31 54.81 133.81 68.59 131.77 59.41 138.74 53.09 117.31 54.81"/><path class="cls-3" d="M294,118.85a7.52,7.52,0,1,0-4.89-9.45A7.52,7.52,0,0,0,294,118.85Z"/><text class="cls-4" transform="translate(312.79 129.19)">&amp;a</text><rect class="cls-5" x="1" y="1" width="395.97" height="148.53" rx="12" ry="12"/><text class="cls-4" transform="translate(66.87 217.36)">*b</text><polyline class="cls-5" points="111.46 56.53 111.46 59.03 108.96 59.03"/><line class="cls-6" x1="103.55" y1="59.03" x2="62.94" y2="59.03"/><polyline class="cls-5" points="60.23 59.03 57.73 59.03 57.73 56.53"/><line class="cls-7" x1="57.73" y1="50.66" x2="57.73" y2="30.11"/><polyline class="cls-5" points="57.73 27.17 57.73 24.67 60.23 24.67"/><line class="cls-6" x1="65.65" y1="24.67" x2="106.26" y2="24.67"/><polyline class="cls-5" points="108.96 24.67 111.46 24.67 111.46 27.17"/><line class="cls-7" x1="111.46" y1="33.05" x2="111.46" y2="53.6"/><line class="cls-8" x1="87.68" y1="59.03" x2="87.68" y2="180.18"/></g></g></svg>