<svg id="Lager_1" data-name="Lager 1" xmlns="http://www.w3.org/2000/svg" viewBox="0 0 398.36 425.12"><defs><style>.cls-1{fill:#c6c6c6;}.cls-1,.cls-2,.cls-5{stroke:#1d1d1b;stroke-miterlimit:10;}.cls-1,.cls-5{stroke-width:2px;}.cls-2,.cls-5{fill:none;}.cls-2{stroke-width:4px;}.cls-3,.cls-4{fill:#1d1d1b;}.cls-4{font-size:40px;font-family:MyriadPro-Regular, Myriad Pro;}</style></defs><title>pointers1</title><rect class="cls-1" x="276.17" y="19.12" width="65.42" height="45.64"/><line class="cls-2" x1="239.66" y1="41.94" x2="296.25" y2="41.94"/><polygon class="cls-3" points="225.54 41.94 245.44 50.07 240.72 41.94 245.44 33.81 225.54 41.94"/><path class="cls-3" d="M394.53,144.25a7.52,7.52,0,1,0-7.52-7.52A7.52,7.52,0,0,0,394.53,144.25Z" transform="translate(-98.65 -94.79)"/><text class="cls-4" transform="translate(20.7 130.8)">a</text><rect class="cls-1" x="51.89" y="95.63" width="65.42" height="45.64"/><text class="cls-4" transform="translate(63.64 131.11)">42</text><text class="cls-4" transform="translate(355.07 54.29)">b</text><line class="cls-2" x1="134.3" y1="118.45" x2="296.25" y2="118.45"/><polygon class="cls-3" points="120.17 118.45 140.07 126.58 135.35 118.45 140.07 110.32 120.17 118.45"/><path class="cls-3" d="M394.53,220.76a7.52,7.52,0,1,0-7.52-7.52A7.52,7.52,0,0,0,394.53,220.76Z" transform="translate(-98.65 -94.79)"/><text class="cls-4" transform="translate(312.79 130.8)">&amp;a</text><text class="cls-4" transform="translate(137.48 230.82)">b = &amp;a</text><rect class="cls-1" x="276.17" y="293.92" width="65.42" height="45.64"/><line class="cls-2" x1="131.61" y1="316.74" x2="296.25" y2="316.74"/><polygon class="cls-3" points="117.49 316.74 137.39 324.87 132.67 316.74 137.39 308.61 117.49 316.74"/><path class="cls-3" d="M394.53,419.05a7.52,7.52,0,1,0-7.52-7.52A7.52,7.52,0,0,0,394.53,419.05Z" transform="translate(-98.65 -94.79)"/><text class="cls-4" transform="translate(355.07 329.09)">b</text><text class="cls-4" transform="translate(20.7 329.09)">a</text><rect class="cls-1" x="51.89" y="293.92" width="65.42" height="45.64"/><text class="cls-4" transform="translate(63.64 329.4)">42</text><line class="cls-2" x1="130.77" y1="333.68" x2="296.59" y2="386.39"/><polygon class="cls-3" points="117.31 329.4 133.81 343.18 131.77 334 138.74 327.68 117.31 329.4"/><path class="cls-3" d="M392.6,488.23a7.52,7.52,0,1,0-4.89-9.44A7.52,7.52,0,0,0,392.6,488.23Z" transform="translate(-98.65 -94.79)"/><text class="cls-4" transform="translate(312.79 403.78)">&amp;a</text><rect class="cls-5" x="1.38" y="1" width="395.97" height="157.72" rx="12" ry="12"/><rect class="cls-5" x="1" y="275.59" width="395.97" height="148.53" rx="12" ry="12"/></svg>