<?xml version="1.0" encoding="UTF-8"?>
<svg id="Lager_1" data-name="Lager 1" xmlns="http://www.w3.org/2000/svg" viewBox="0 0 292.03 172.68">
  <defs>
    <style>
      .cls-1 {
        letter-spacing: 0em;
      }

      .cls-2, .cls-3 {
        fill: #fff;
      }

      .cls-4 {
        letter-spacing: .02em;
      }

      .cls-5 {
        letter-spacing: 0em;
      }

      .cls-6 {
        stroke-width: .75px;
      }

      .cls-6, .cls-7, .cls-8, .cls-9 {
        fill: none;
      }

      .cls-6, .cls-7, .cls-8, .cls-3 {
        stroke: #1d1d1b;
        stroke-miterlimit: 10;
      }

      .cls-10 {
        letter-spacing: 0em;
      }

      .cls-11 {
        letter-spacing: 0em;
      }

      .cls-8 {
        stroke-dasharray: 0 0 4.1 1.37;
      }

      .cls-12 {
        letter-spacing: 0em;
      }

      .cls-13 {
        letter-spacing: 0em;
      }

      .cls-14 {
        letter-spacing: -.01em;
      }

      .cls-15 {
        font-family: MyriadPro-Regular, 'Myriad Pro';
        font-size: 12px;
      }

      .cls-15, .cls-16 {
        fill: #1d1d1b;
      }
    </style>
  </defs>
  <rect class="cls-3" x="30.11" y="95.58" width="12.84" height="12.84"/>
  <rect class="cls-3" x="55.79" y="95.58" width="12.84" height="12.84"/>
  <rect class="cls-3" x="81.46" y="95.58" width="12.84" height="12.84"/>
  <rect class="cls-3" x="107.14" y="95.58" width="12.84" height="12.84"/>
  <rect class="cls-3" x="132.81" y="95.58" width="12.84" height="12.84"/>
  <rect class="cls-3" x="158.49" y="95.58" width="12.84" height="12.84"/>
  <circle class="cls-3" cx="36.53" cy="102" r="3.48"/>
  <circle class="cls-3" cx="62.21" cy="102" r="3.48"/>
  <circle class="cls-3" cx="87.88" cy="102" r="3.48"/>
  <circle class="cls-3" cx="113.56" cy="102" r="3.48"/>
  <circle class="cls-3" cx="139.23" cy="102" r="3.48"/>
  <circle class="cls-3" cx="164.91" cy="102" r="3.48"/>
  <path class="cls-7" d="m30.26,24.2l2.53-2.53c1.07-1.07,2.51-1.67,4.02-1.67h86.67c1.55,0,3.04-.62,4.14-1.71l2.94-2.94,2.73,2.73c1.01,1.01,2.39,1.58,3.82,1.58h78.52c1.68,0,3.29.64,4.51,1.79l3.17,2.98"/>
  <text class="cls-15" transform="translate(117.04 10.04)"><tspan x="0" y="0">.si</tspan><tspan class="cls-12" x="10.04" y="0">z</tspan><tspan x="15.1" y="0">e()</tspan></text>
  <line class="cls-9" x1="175.05" y1="172.68" x2="175.24" y2="172.1"/>
  <g>
    <line class="cls-6" x1="43" y1="98.9" x2="53.67" y2="98.9"/>
    <path class="cls-16" d="m43.08,100.62c-.95,0-1.72-.77-1.72-1.72s.77-1.72,1.72-1.72,1.72.77,1.72,1.72-.77,1.72-1.72,1.72Z"/>
    <polygon class="cls-16" points="49.23 101.29 48.98 100.58 53.59 98.9 48.98 97.22 49.23 96.52 55.79 98.9 49.23 101.29"/>
  </g>
  <g>
    <line class="cls-7" x1="36.53" y1="135.43" x2="36.53" y2="116.01"/>
    <path class="cls-16" d="m38.82,135.32c0,1.27-1.03,2.29-2.29,2.29s-2.29-1.03-2.29-2.29,1.03-2.29,2.29-2.29,2.29,1.03,2.29,2.29Z"/>
    <polygon class="cls-16" points="39.71 121.92 38.77 122.26 36.53 116.11 34.29 122.26 33.35 121.92 36.53 113.19 39.71 121.92"/>
  </g>
  <text class="cls-15" transform="translate(20.35 150.72)"><tspan x="0" y="0">.be</tspan><tspan class="cls-13" x="15.32" y="0">g</tspan><tspan x="21.96" y="0">in()</tspan></text>
  <text class="cls-15" transform="translate(225.92 153.22)"><tspan x="0" y="0">.end()</tspan></text>
  <rect class="cls-3" x="183.92" y="95.58" width="12.84" height="12.84"/>
  <rect class="cls-3" x="209.57" y="95.58" width="12.84" height="12.84"/>
  <circle class="cls-3" cx="190.34" cy="102" r="3.48"/>
  <circle class="cls-3" cx="215.98" cy="102" r="3.48"/>
  <g>
    <line class="cls-7" x1="241.41" y1="139.56" x2="241.41" y2="120.13"/>
    <circle class="cls-16" cx="241.41" cy="139.44" r="2.29"/>
    <polygon class="cls-16" points="244.59 126.05 243.65 126.39 241.41 120.23 239.17 126.39 238.23 126.05 241.41 117.31 244.59 126.05"/>
  </g>
  <g>
    <rect class="cls-2" x="4.58" y="95.58" width="12.84" height="12.84"/>
    <g>
      <polyline class="cls-7" points="17.42 105.42 17.42 108.42 14.42 108.42"/>
      <line class="cls-8" x1="13.05" y1="108.42" x2="8.26" y2="108.42"/>
      <polyline class="cls-7" points="7.58 108.42 4.58 108.42 4.58 105.42"/>
      <line class="cls-8" x1="4.58" y1="104.05" x2="4.58" y2="99.26"/>
      <polyline class="cls-7" points="4.58 98.58 4.58 95.58 7.58 95.58"/>
      <line class="cls-8" x1="8.95" y1="95.58" x2="13.73" y2="95.58"/>
      <polyline class="cls-7" points="14.42 95.58 17.42 95.58 17.42 98.58"/>
      <line class="cls-8" x1="17.42" y1="99.95" x2="17.42" y2="104.73"/>
    </g>
  </g>
  <g>
    <line class="cls-7" x1="8.28" y1="68.51" x2="8.28" y2="90.12"/>
    <polygon class="cls-16" points="5.1 84.2 6.04 83.86 8.28 90.02 10.52 83.86 11.46 84.2 8.28 92.94 5.1 84.2"/>
  </g>
  <g>
    <line class="cls-7" x1="13.84" y1="92.94" x2="13.84" y2="71.34"/>
    <polygon class="cls-16" points="17.02 77.25 16.08 77.59 13.84 71.44 11.6 77.59 10.66 77.25 13.84 68.51 17.02 77.25"/>
  </g>
  <text class="cls-15" transform="translate(0 47.44)"><tspan x="0" y="0">.push_f</tspan><tspan class="cls-5" x="36.84" y="0">r</tspan><tspan x="40.64" y="0">o</tspan><tspan class="cls-10" x="47.23" y="0">n</tspan><tspan class="cls-11" x="53.84" y="0">t()</tspan><tspan x="0" y="14.4">.pop_f</tspan><tspan class="cls-14" x="32.23" y="14.4">r</tspan><tspan x="36.04" y="14.4">o</tspan><tspan class="cls-1" x="42.62" y="14.4">n</tspan><tspan x="49.24" y="14.4">t()</tspan></text>
  <g>
    <line class="cls-7" x1="237.78" y1="67.28" x2="237.78" y2="88.88"/>
    <polygon class="cls-16" points="234.6 82.97 235.54 82.63 237.78 88.79 240.02 82.63 240.96 82.97 237.78 91.71 234.6 82.97"/>
  </g>
  <g>
    <line class="cls-7" x1="243.34" y1="91.71" x2="243.34" y2="70.11"/>
    <polygon class="cls-16" points="246.52 76.02 245.58 76.36 243.34 70.21 241.1 76.36 240.16 76.02 243.34 67.28 246.52 76.02"/>
  </g>
  <text class="cls-15" transform="translate(228.26 48.58)"><tspan x="0" y="0">.push_back()</tspan><tspan x="0" y="14.4">.pop_back()</tspan></text>
  <g>
    <rect class="cls-2" x="119.98" y="66.59" width="12.84" height="12.84"/>
    <g>
      <polyline class="cls-7" points="132.81 76.43 132.81 79.43 129.81 79.43"/>
      <line class="cls-8" x1="128.45" y1="79.43" x2="123.66" y2="79.43"/>
      <polyline class="cls-7" points="122.98 79.43 119.98 79.43 119.98 76.43"/>
      <line class="cls-8" x1="119.98" y1="75.06" x2="119.98" y2="70.28"/>
      <polyline class="cls-7" points="119.98 69.59 119.98 66.59 122.98 66.59"/>
      <line class="cls-8" x1="124.34" y1="66.59" x2="129.13" y2="66.59"/>
      <polyline class="cls-7" points="129.81 66.59 132.81 66.59 132.81 69.59"/>
      <line class="cls-8" x1="132.81" y1="70.96" x2="132.81" y2="75.75"/>
    </g>
  </g>
  <g>
    <rect class="cls-2" x="234.99" y="95.58" width="12.84" height="12.84"/>
    <g>
      <polyline class="cls-7" points="247.83 105.42 247.83 108.42 244.83 108.42"/>
      <line class="cls-8" x1="243.46" y1="108.42" x2="238.68" y2="108.42"/>
      <polyline class="cls-7" points="237.99 108.42 234.99 108.42 234.99 105.42"/>
      <line class="cls-8" x1="234.99" y1="104.05" x2="234.99" y2="99.26"/>
      <polyline class="cls-7" points="234.99 98.58 234.99 95.58 237.99 95.58"/>
      <line class="cls-8" x1="239.36" y1="95.58" x2="244.15" y2="95.58"/>
      <polyline class="cls-7" points="244.83 95.58 247.83 95.58 247.83 98.58"/>
      <line class="cls-8" x1="247.83" y1="99.95" x2="247.83" y2="104.73"/>
    </g>
  </g>
  <g>
    <line class="cls-6" x1="55.74" y1="104.85" x2="45.07" y2="104.85"/>
    <path class="cls-16" d="m55.66,103.13c.95,0,1.72.77,1.72,1.72s-.77,1.72-1.72,1.72-1.72-.77-1.72-1.72.77-1.72,1.72-1.72Z"/>
    <polygon class="cls-16" points="49.5 102.46 49.76 103.17 45.14 104.85 49.76 106.53 49.5 107.23 42.95 104.85 49.5 102.46"/>
  </g>
  <g>
    <line class="cls-6" x1="17.52" y1="99.03" x2="28.19" y2="99.03"/>
    <path class="cls-16" d="m17.61,100.75c-.95,0-1.72-.77-1.72-1.72s.77-1.72,1.72-1.72,1.72.77,1.72,1.72-.77,1.72-1.72,1.72Z"/>
    <polygon class="cls-16" points="23.76 101.41 23.5 100.71 28.12 99.03 23.5 97.35 23.76 96.64 30.31 99.03 23.76 101.41"/>
  </g>
  <g>
    <line class="cls-6" x1="30.27" y1="104.97" x2="19.59" y2="104.97"/>
    <path class="cls-16" d="m30.18,103.25c.95,0,1.72.77,1.72,1.72s-.77,1.72-1.72,1.72-1.72-.77-1.72-1.72.77-1.72,1.72-1.72Z"/>
    <polygon class="cls-16" points="24.03 102.58 24.28 103.29 19.67 104.97 24.28 106.65 24.03 107.35 17.47 104.97 24.03 102.58"/>
  </g>
  <g>
    <line class="cls-6" x1="68.67" y1="99.03" x2="79.34" y2="99.03"/>
    <path class="cls-16" d="m68.76,100.75c-.95,0-1.72-.77-1.72-1.72s.77-1.72,1.72-1.72,1.72.77,1.72,1.72-.77,1.72-1.72,1.72Z"/>
    <polygon class="cls-16" points="74.91 101.41 74.65 100.71 79.27 99.03 74.65 97.35 74.91 96.64 81.46 99.03 74.91 101.41"/>
  </g>
  <g>
    <line class="cls-6" x1="81.42" y1="104.97" x2="70.74" y2="104.97"/>
    <path class="cls-16" d="m81.33,103.25c.95,0,1.72.77,1.72,1.72s-.77,1.72-1.72,1.72-1.72-.77-1.72-1.72.77-1.72,1.72-1.72Z"/>
    <polygon class="cls-16" points="75.18 102.58 75.43 103.29 70.82 104.97 75.43 106.65 75.18 107.35 68.63 104.97 75.18 102.58"/>
  </g>
  <g>
    <line class="cls-6" x1="94.35" y1="99.03" x2="105.02" y2="99.03"/>
    <path class="cls-16" d="m94.43,100.75c-.95,0-1.72-.77-1.72-1.72s.77-1.72,1.72-1.72,1.72.77,1.72,1.72-.77,1.72-1.72,1.72Z"/>
    <polygon class="cls-16" points="100.59 101.41 100.33 100.71 104.95 99.03 100.33 97.35 100.59 96.64 107.14 99.03 100.59 101.41"/>
  </g>
  <g>
    <line class="cls-6" x1="107.09" y1="104.97" x2="96.42" y2="104.97"/>
    <path class="cls-16" d="m107.01,103.25c.95,0,1.72.77,1.72,1.72s-.77,1.72-1.72,1.72-1.72-.77-1.72-1.72.77-1.72,1.72-1.72Z"/>
    <polygon class="cls-16" points="100.85 102.58 101.11 103.29 96.49 104.97 101.11 106.65 100.85 107.35 94.3 104.97 100.85 102.58"/>
  </g>
  <g>
    <line class="cls-6" x1="145.7" y1="99.03" x2="156.37" y2="99.03"/>
    <path class="cls-16" d="m145.78,100.75c-.95,0-1.72-.77-1.72-1.72s.77-1.72,1.72-1.72,1.72.77,1.72,1.72-.77,1.72-1.72,1.72Z"/>
    <polygon class="cls-16" points="151.94 101.41 151.68 100.71 156.3 99.03 151.68 97.35 151.94 96.64 158.49 99.03 151.94 101.41"/>
  </g>
  <g>
    <line class="cls-6" x1="158.44" y1="104.97" x2="147.77" y2="104.97"/>
    <path class="cls-16" d="m158.36,103.25c.95,0,1.72.77,1.72,1.72s-.77,1.72-1.72,1.72-1.72-.77-1.72-1.72.77-1.72,1.72-1.72Z"/>
    <polygon class="cls-16" points="152.21 102.58 152.46 103.29 147.84 104.97 152.46 106.65 152.21 107.35 145.65 104.97 152.21 102.58"/>
  </g>
  <g>
    <line class="cls-6" x1="171.25" y1="99.03" x2="181.92" y2="99.03"/>
    <path class="cls-16" d="m171.34,100.75c-.95,0-1.72-.77-1.72-1.72s.77-1.72,1.72-1.72,1.72.77,1.72,1.72-.77,1.72-1.72,1.72Z"/>
    <polygon class="cls-16" points="177.49 101.41 177.23 100.71 181.85 99.03 177.23 97.35 177.49 96.64 184.04 99.03 177.49 101.41"/>
  </g>
  <g>
    <line class="cls-6" x1="184" y1="104.97" x2="173.32" y2="104.97"/>
    <path class="cls-16" d="m183.91,103.25c.95,0,1.72.77,1.72,1.72s-.77,1.72-1.72,1.72-1.72-.77-1.72-1.72.77-1.72,1.72-1.72Z"/>
    <polygon class="cls-16" points="177.76 102.58 178.01 103.29 173.4 104.97 178.01 106.65 177.76 107.35 171.21 104.97 177.76 102.58"/>
  </g>
  <g>
    <line class="cls-6" x1="196.77" y1="99.03" x2="207.45" y2="99.03"/>
    <path class="cls-16" d="m196.86,100.75c-.95,0-1.72-.77-1.72-1.72s.77-1.72,1.72-1.72,1.72.77,1.72,1.72-.77,1.72-1.72,1.72Z"/>
    <polygon class="cls-16" points="203.01 101.41 202.76 100.71 207.37 99.03 202.76 97.35 203.01 96.64 209.57 99.03 203.01 101.41"/>
  </g>
  <g>
    <line class="cls-6" x1="209.52" y1="104.97" x2="198.85" y2="104.97"/>
    <path class="cls-16" d="m209.43,103.25c.95,0,1.72.77,1.72,1.72s-.77,1.72-1.72,1.72-1.72-.77-1.72-1.72.77-1.72,1.72-1.72Z"/>
    <polygon class="cls-16" points="203.28 102.58 203.54 103.29 198.92 104.97 203.54 106.65 203.28 107.35 196.73 104.97 203.28 102.58"/>
  </g>
  <g>
    <line class="cls-6" x1="222.51" y1="98.51" x2="233.19" y2="98.51"/>
    <path class="cls-16" d="m222.6,100.23c-.95,0-1.72-.77-1.72-1.72s.77-1.72,1.72-1.72,1.72.77,1.72,1.72-.77,1.72-1.72,1.72Z"/>
    <polygon class="cls-16" points="228.75 100.9 228.5 100.19 233.11 98.51 228.5 96.83 228.75 96.13 235.3 98.51 228.75 100.9"/>
  </g>
  <g>
    <line class="cls-6" x1="235.26" y1="104.46" x2="224.59" y2="104.46"/>
    <path class="cls-16" d="m235.17,102.74c.95,0,1.72.77,1.72,1.72s-.77,1.72-1.72,1.72-1.72-.77-1.72-1.72.77-1.72,1.72-1.72Z"/>
    <polygon class="cls-16" points="229.02 102.07 229.28 102.78 224.66 104.46 229.28 106.14 229.02 106.84 222.47 104.46 229.02 102.07"/>
  </g>
  <g>
    <polyline class="cls-6" points="109.5 95.46 109.5 70.98 117.86 70.98"/>
    <circle class="cls-16" cx="109.5" cy="95.38" r="1.69"/>
    <polygon class="cls-16" points="113.42 73.36 113.17 72.66 117.78 70.98 113.17 69.3 113.42 68.59 119.98 70.98 113.42 73.36"/>
  </g>
  <g>
    <polyline class="cls-6" points="118.4 77.15 115.5 77.15 115.5 93.46"/>
    <path class="cls-16" d="m118.31,75.49c.92,0,1.66.74,1.66,1.66s-.74,1.66-1.66,1.66-1.66-.74-1.66-1.66.74-1.66,1.66-1.66Z"/>
    <polygon class="cls-16" points="113.12 89.03 113.82 88.77 115.5 93.39 117.18 88.77 117.89 89.03 115.5 95.58 113.12 89.03"/>
  </g>
  <g>
    <polyline class="cls-6" points="143.29 93.46 143.29 69.49 134.42 69.49"/>
    <polygon class="cls-16" points="145.67 89.03 144.97 88.77 143.29 93.39 141.61 88.77 140.9 89.03 143.29 95.58 145.67 89.03"/>
    <path class="cls-16" d="m134.51,67.79c-.93,0-1.69.76-1.69,1.69s.76,1.69,1.69,1.69,1.69-.76,1.69-1.69-.76-1.69-1.69-1.69Z"/>
  </g>
  <g>
    <polyline class="cls-6" points="133.83 78.03 138.59 78.03 138.59 94.87"/>
    <polygon class="cls-16" points="137.42 79.96 137.63 79.39 133.89 78.03 137.63 76.67 137.42 76.09 132.11 78.03 137.42 79.96"/>
    <path class="cls-16" d="m136.92,94.79c0,.92.74,1.66,1.66,1.66s1.66-.74,1.66-1.66-.74-1.66-1.66-1.66-1.66.74-1.66,1.66Z"/>
  </g>
  <text class="cls-15" transform="translate(107.14 60)"><tspan x="0" y="0">.inse</tspan><tspan class="cls-4" x="22.72" y="0">r</tspan><tspan class="cls-11" x="26.93" y="0">t()</tspan></text>
</svg>