<?xml version="1.0" encoding="UTF-8"?>
<svg id="Lager_1" data-name="Lager 1" xmlns="http://www.w3.org/2000/svg" viewBox="0 0 1236 621">
  <defs>
    <style>
      .cls-1 {
        stroke-dasharray: 6.07 6.07;
      }

      .cls-1, .cls-2, .cls-3, .cls-4, .cls-5, .cls-6, .cls-7, .cls-8, .cls-9 {
        stroke: #1d1d1b;
        stroke-miterlimit: 10;
      }

      .cls-1, .cls-8, .cls-9 {
        fill: none;
      }

      .cls-2 {
        fill: #cf8ebe;
      }

      .cls-10 {
        fill: #1d1d1b;
      }

      .cls-3 {
        fill: #f9b233;
      }

      .cls-4 {
        fill: #71c2e1;
      }

      .cls-5 {
        fill: #b1c28a;
      }

      .cls-6 {
        fill: #f9f2a2;
      }

      .cls-7 {
        fill: #e49d66;
      }

      .cls-8 {
        stroke-dasharray: 4.46 4.46;
      }
    </style>
  </defs>
  <rect class="cls-6" x="522.89" y="93.06" width="400.62" height="100.57"/>
  <rect class="cls-5" x="522.89" y="209.64" width="400.62" height="100.57"/>
  <rect class="cls-4" x="522.89" y="326.21" width="400.62" height="100.57"/>
  <rect class="cls-7" x="522.89" y="442.79" width="400.62" height="100.57"/>
  <g>
    <rect class="cls-3" x="47.26" y="93.31" width="400.62" height="402.3"/>
    <g>
      <line class="cls-9" x1="47.26" y1="193.89" x2="50.26" y2="193.89"/>
      <line class="cls-1" x1="56.34" y1="193.89" x2="441.85" y2="193.89"/>
      <line class="cls-9" x1="444.89" y1="193.89" x2="447.89" y2="193.89"/>
    </g>
    <g>
      <line class="cls-9" x1="47.26" y1="294.46" x2="50.26" y2="294.46"/>
      <line class="cls-1" x1="56.34" y1="294.46" x2="441.85" y2="294.46"/>
      <line class="cls-9" x1="444.89" y1="294.46" x2="447.89" y2="294.46"/>
    </g>
    <g>
      <line class="cls-9" x1="47.26" y1="395.04" x2="50.26" y2="395.04"/>
      <line class="cls-1" x1="56.34" y1="395.04" x2="441.85" y2="395.04"/>
      <line class="cls-9" x1="444.89" y1="395.04" x2="447.89" y2="395.04"/>
    </g>
  </g>
  <rect class="cls-6" x="1050.69" y="93.06" width="25.31" height="100.57"/>
  <rect class="cls-5" x="1050.69" y="209.64" width="25.31" height="100.57"/>
  <rect class="cls-4" x="1050.69" y="326.21" width="25.31" height="100.57"/>
  <rect class="cls-7" x="1050.69" y="442.79" width="25.31" height="100.57"/>
  <g>
    <path class="cls-10" d="M210.34,70.69c0,4.64-2.82,7.1-6.26,7.1s-6.06-2.76-6.06-6.84c0-4.28,2.66-7.08,6.26-7.08s6.06,2.82,6.06,6.82ZM199.88,70.9c0,2.88,1.56,5.46,4.3,5.46s4.32-2.54,4.32-5.6c0-2.68-1.4-5.48-4.3-5.48s-4.32,2.66-4.32,5.62Z"/>
    <path class="cls-10" d="M212.54,70.9c0-1.14-.02-2.12-.08-3.02h1.54l.06,1.9h.08c.44-1.3,1.5-2.12,2.68-2.12.2,0,.34.02.5.06v1.66c-.18-.04-.36-.06-.6-.06-1.24,0-2.12.94-2.36,2.26-.04.24-.08.52-.08.82v5.16h-1.74v-6.66Z"/>
    <path class="cls-10" d="M221.12,65.16c.02.6-.42,1.08-1.12,1.08-.62,0-1.06-.48-1.06-1.08s.46-1.1,1.1-1.1,1.08.48,1.08,1.1ZM219.16,77.57v-9.68h1.76v9.68h-1.76Z"/>
    <path class="cls-10" d="M232.18,67.88c-.04.7-.08,1.48-.08,2.66v5.62c0,2.22-.44,3.58-1.38,4.42-.94.88-2.3,1.16-3.52,1.16s-2.44-.28-3.22-.8l.44-1.34c.64.4,1.64.76,2.84.76,1.8,0,3.12-.94,3.12-3.38v-1.08h-.04c-.54.9-1.58,1.62-3.08,1.62-2.4,0-4.12-2.04-4.12-4.72,0-3.28,2.14-5.14,4.36-5.14,1.68,0,2.6.88,3.02,1.68h.04l.08-1.46h1.54ZM230.36,71.71c0-.3-.02-.56-.1-.8-.32-1.02-1.18-1.86-2.46-1.86-1.68,0-2.88,1.42-2.88,3.66,0,1.9.96,3.48,2.86,3.48,1.08,0,2.06-.68,2.44-1.8.1-.3.14-.64.14-.94v-1.74Z"/>
    <path class="cls-10" d="M236.86,65.16c.02.6-.42,1.08-1.12,1.08-.62,0-1.06-.48-1.06-1.08s.46-1.1,1.1-1.1,1.08.48,1.08,1.1ZM234.9,77.57v-9.68h1.76v9.68h-1.76Z"/>
    <path class="cls-10" d="M239.58,70.5c0-1-.02-1.82-.08-2.62h1.56l.1,1.6h.04c.48-.92,1.6-1.82,3.2-1.82,1.34,0,3.42.8,3.42,4.12v5.78h-1.76v-5.58c0-1.56-.58-2.86-2.24-2.86-1.16,0-2.06.82-2.36,1.8-.08.22-.12.52-.12.82v5.82h-1.76v-7.06Z"/>
    <path class="cls-10" d="M256.04,77.57l-.14-1.22h-.06c-.54.76-1.58,1.44-2.96,1.44-1.96,0-2.96-1.38-2.96-2.78,0-2.34,2.08-3.62,5.82-3.6v-.2c0-.8-.22-2.24-2.2-2.24-.9,0-1.84.28-2.52.72l-.4-1.16c.8-.52,1.96-.86,3.18-.86,2.96,0,3.68,2.02,3.68,3.96v3.62c0,.84.04,1.66.16,2.32h-1.6ZM255.78,72.63c-1.92-.04-4.1.3-4.1,2.18,0,1.14.76,1.68,1.66,1.68,1.26,0,2.06-.8,2.34-1.62.06-.18.1-.38.1-.56v-1.68Z"/>
    <path class="cls-10" d="M260.32,63.36h1.76v14.2h-1.76v-14.2Z"/>
    <path class="cls-10" d="M280.7,71.65c-.1-1.88-.22-4.14-.2-5.82h-.06c-.46,1.58-1.02,3.26-1.7,5.12l-2.38,6.54h-1.32l-2.18-6.42c-.64-1.9-1.18-3.64-1.56-5.24h-.04c-.04,1.68-.14,3.94-.26,5.96l-.36,5.78h-1.66l.94-13.48h2.22l2.3,6.52c.56,1.66,1.02,3.14,1.36,4.54h.06c.34-1.36.82-2.84,1.42-4.54l2.4-6.52h2.22l.84,13.48h-1.7l-.34-5.92Z"/>
    <path class="cls-10" d="M290.84,77.57l-.14-1.22h-.06c-.54.76-1.58,1.44-2.96,1.44-1.96,0-2.96-1.38-2.96-2.78,0-2.34,2.08-3.62,5.82-3.6v-.2c0-.8-.22-2.24-2.2-2.24-.9,0-1.84.28-2.52.72l-.4-1.16c.8-.52,1.96-.86,3.18-.86,2.96,0,3.68,2.02,3.68,3.96v3.62c0,.84.04,1.66.16,2.32h-1.6ZM290.58,72.63c-1.92-.04-4.1.3-4.1,2.18,0,1.14.76,1.68,1.66,1.68,1.26,0,2.06-.8,2.34-1.62.06-.18.1-.38.1-.56v-1.68Z"/>
    <path class="cls-10" d="M297.16,65.1v2.78h2.52v1.34h-2.52v5.22c0,1.2.34,1.88,1.32,1.88.46,0,.8-.06,1.02-.12l.08,1.32c-.34.14-.88.24-1.56.24-.82,0-1.48-.26-1.9-.74-.5-.52-.68-1.38-.68-2.52v-5.28h-1.5v-1.34h1.5v-2.32l1.72-.46Z"/>
    <path class="cls-10" d="M301.66,70.9c0-1.14-.02-2.12-.08-3.02h1.54l.06,1.9h.08c.44-1.3,1.5-2.12,2.68-2.12.2,0,.34.02.5.06v1.66c-.18-.04-.36-.06-.6-.06-1.24,0-2.12.94-2.36,2.26-.04.24-.08.52-.08.82v5.16h-1.74v-6.66Z"/>
    <path class="cls-10" d="M310.24,65.16c.02.6-.42,1.08-1.12,1.08-.62,0-1.06-.48-1.06-1.08s.46-1.1,1.1-1.1,1.08.48,1.08,1.1ZM308.28,77.57v-9.68h1.76v9.68h-1.76Z"/>
    <path class="cls-10" d="M313.78,67.88l1.38,2.08c.36.54.66,1.04.98,1.58h.06c.32-.58.64-1.08.96-1.6l1.36-2.06h1.9l-3.3,4.68,3.4,5h-2l-1.42-2.18c-.38-.56-.7-1.1-1.04-1.68h-.04c-.32.58-.66,1.1-1.02,1.68l-1.4,2.18h-1.94l3.44-4.94-3.28-4.74h1.96Z"/>
  </g>
  <g>
    <path class="cls-10" d="M21.2,331.65v.04l1.22,2.26-1.34.34-1.52-2.84v-1.5h13v1.7h-11.36Z"/>
    <path class="cls-10" d="M25.92,316.57c4.42,0,6.86,1.64,6.86,4.52,0,2.54-2.38,4.26-6.68,4.3-4.36,0-6.76-1.88-6.76-4.52s2.44-4.3,6.58-4.3ZM26.12,323.63c3.38,0,5.3-1.04,5.3-2.64,0-1.8-2.1-2.66-5.42-2.66s-5.3.82-5.3,2.64c0,1.54,1.88,2.66,5.42,2.66Z"/>
    <path class="cls-10" d="M25.92,306.31c4.42,0,6.86,1.64,6.86,4.52,0,2.54-2.38,4.26-6.68,4.3-4.36,0-6.76-1.88-6.76-4.52s2.44-4.3,6.58-4.3ZM26.12,313.38c3.38,0,5.3-1.04,5.3-2.64,0-1.8-2.1-2.66-5.42-2.66s-5.3.82-5.3,2.64c0,1.54,1.88,2.66,5.42,2.66Z"/>
    <path class="cls-10" d="M25.92,296.05c4.42,0,6.86,1.64,6.86,4.52,0,2.54-2.38,4.26-6.68,4.3-4.36,0-6.76-1.88-6.76-4.52s2.44-4.3,6.58-4.3ZM26.12,303.12c3.38,0,5.3-1.04,5.3-2.64,0-1.8-2.1-2.66-5.42-2.66s-5.3.82-5.3,2.64c0,1.54,1.88,2.66,5.42,2.66Z"/>
    <path class="cls-10" d="M25.9,289.64c-1.14,0-2.12.02-3.02.08v-1.54l1.9-.06v-.08c-1.3-.44-2.12-1.5-2.12-2.68,0-.2.02-.34.06-.5h1.66c-.04.18-.06.36-.06.6,0,1.24.94,2.12,2.26,2.36.24.04.52.08.82.08h5.16v1.74h-6.66Z"/>
    <path class="cls-10" d="M27.64,274.53c3.58,0,5.14,2.48,5.14,4.82,0,2.62-1.92,4.64-4.98,4.64-3.24,0-5.14-2.12-5.14-4.8s2.02-4.66,4.98-4.66ZM27.74,282.22c2.12,0,3.72-1.22,3.72-2.94s-1.58-2.94-3.76-2.94c-1.64,0-3.72.82-3.72,2.9s1.92,2.98,3.76,2.98Z"/>
    <path class="cls-10" d="M22.88,271.76l4.92-1.28c1.08-.28,2.08-.54,3.08-.72v-.06c-.98-.22-2.02-.54-3.06-.86l-4.94-1.58v-1.48l4.84-1.5c1.16-.36,2.18-.64,3.16-.86v-.06c-.98-.16-2-.42-3.14-.74l-4.86-1.38v-1.74l9.68,3.12v1.6l-4.62,1.48c-1.08.34-2.04.62-3.18.86v.04c1.16.24,2.16.54,3.2.88l4.6,1.56v1.6l-9.68,2.92v-1.8Z"/>
    <path class="cls-10" d="M30.76,258.1c.34-.52.7-1.44.7-2.32,0-1.28-.64-1.88-1.44-1.88-.84,0-1.3.5-1.78,1.8-.62,1.74-1.58,2.56-2.74,2.56-1.56,0-2.84-1.26-2.84-3.34,0-.98.28-1.84.6-2.38l1.28.44c-.24.38-.56,1.08-.56,1.98,0,1.04.6,1.62,1.32,1.62.8,0,1.16-.58,1.64-1.84.64-1.68,1.48-2.54,2.92-2.54,1.7,0,2.9,1.32,2.9,3.62,0,1.06-.26,2.04-.66,2.72l-1.34-.44Z"/>
  </g>
  <g>
    <path class="cls-10" d="M216.88,511.61h-.04l-2.26,1.22-.34-1.34,2.84-1.52h1.5v13h-1.7v-11.36Z"/>
    <path class="cls-10" d="M231.96,516.33c0,4.42-1.64,6.86-4.52,6.86-2.54,0-4.26-2.38-4.3-6.68,0-4.36,1.88-6.76,4.52-6.76s4.3,2.44,4.3,6.58ZM224.9,516.53c0,3.38,1.04,5.3,2.64,5.3,1.8,0,2.66-2.1,2.66-5.42s-.82-5.3-2.64-5.3c-1.54,0-2.66,1.88-2.66,5.42Z"/>
    <path class="cls-10" d="M242.22,516.33c0,4.42-1.64,6.86-4.52,6.86-2.54,0-4.26-2.38-4.3-6.68,0-4.36,1.88-6.76,4.52-6.76s4.3,2.44,4.3,6.58ZM235.16,516.53c0,3.38,1.04,5.3,2.64,5.3,1.8,0,2.66-2.1,2.66-5.42s-.82-5.3-2.64-5.3c-1.54,0-2.66,1.88-2.66,5.42Z"/>
    <path class="cls-10" d="M252.48,516.33c0,4.42-1.64,6.86-4.52,6.86-2.54,0-4.26-2.38-4.3-6.68,0-4.36,1.88-6.76,4.52-6.76s4.3,2.44,4.3,6.58ZM245.42,516.53c0,3.38,1.04,5.3,2.64,5.3,1.8,0,2.66-2.1,2.66-5.42s-.82-5.3-2.64-5.3c-1.54,0-2.66,1.88-2.66,5.42Z"/>
    <path class="cls-10" d="M258.9,516.31c0-1.14-.02-2.12-.08-3.02h1.54l.06,1.9h.08c.44-1.3,1.5-2.12,2.68-2.12.2,0,.34.02.5.06v1.66c-.18-.04-.36-.06-.6-.06-1.24,0-2.12.94-2.36,2.26-.04.24-.08.52-.08.82v5.16h-1.74v-6.66Z"/>
    <path class="cls-10" d="M274,518.05c0,3.58-2.48,5.14-4.82,5.14-2.62,0-4.64-1.92-4.64-4.98,0-3.24,2.12-5.14,4.8-5.14s4.66,2.02,4.66,4.98ZM266.32,518.15c0,2.12,1.22,3.72,2.94,3.72s2.94-1.58,2.94-3.76c0-1.64-.82-3.72-2.9-3.72s-2.98,1.92-2.98,3.76Z"/>
    <path class="cls-10" d="M276.78,513.29l1.28,4.92c.28,1.08.54,2.08.72,3.08h.06c.22-.98.54-2.02.86-3.06l1.58-4.94h1.48l1.5,4.84c.36,1.16.64,2.18.86,3.16h.06c.16-.98.42-2,.74-3.14l1.38-4.86h1.74l-3.12,9.68h-1.6l-1.48-4.62c-.34-1.08-.62-2.04-.86-3.18h-.04c-.24,1.16-.54,2.16-.88,3.2l-1.56,4.6h-1.6l-2.92-9.68h1.8Z"/>
    <path class="cls-10" d="M290.44,521.17c.52.34,1.44.7,2.32.7,1.28,0,1.88-.64,1.88-1.44s-.5-1.3-1.8-1.78c-1.74-.62-2.56-1.58-2.56-2.74,0-1.56,1.26-2.84,3.34-2.84.98,0,1.84.28,2.38.6l-.44,1.28c-.38-.24-1.08-.56-1.98-.56-1.04,0-1.62.6-1.62,1.32,0,.8.58,1.16,1.84,1.64,1.68.64,2.54,1.48,2.54,2.92,0,1.7-1.32,2.9-3.62,2.9-1.06,0-2.04-.26-2.72-.66l.44-1.34Z"/>
  </g>
  <g>
    <path class="cls-10" d="M540.98,107.46c.84-.14,1.94-.26,3.34-.26,1.72,0,2.98.4,3.78,1.12.74.64,1.18,1.62,1.18,2.82s-.36,2.18-1.04,2.88c-.92.98-2.42,1.48-4.12,1.48-.52,0-1-.02-1.4-.12v5.4h-1.74v-13.32ZM542.72,113.96c.38.1.86.14,1.44.14,2.1,0,3.38-1.02,3.38-2.88s-1.26-2.64-3.18-2.64c-.76,0-1.34.06-1.64.14v5.24Z"/>
    <path class="cls-10" d="M551.24,114.12c0-1.14-.02-2.12-.08-3.02h1.54l.06,1.9h.08c.44-1.3,1.5-2.12,2.68-2.12.2,0,.34.02.5.06v1.66c-.18-.04-.36-.06-.6-.06-1.24,0-2.12.94-2.36,2.26-.04.24-.08.52-.08.82v5.16h-1.74v-6.66Z"/>
    <path class="cls-10" d="M566.34,115.86c0,3.58-2.48,5.14-4.82,5.14-2.62,0-4.64-1.92-4.64-4.98,0-3.24,2.12-5.14,4.8-5.14s4.66,2.02,4.66,4.98ZM558.66,115.96c0,2.12,1.22,3.72,2.94,3.72s2.94-1.58,2.94-3.76c0-1.64-.82-3.72-2.9-3.72s-2.98,1.92-2.98,3.76Z"/>
    <path class="cls-10" d="M575.46,120.42c-.46.24-1.48.56-2.78.56-2.92,0-4.82-1.98-4.82-4.94s2.04-5.14,5.2-5.14c1.04,0,1.96.26,2.44.5l-.4,1.36c-.42-.24-1.08-.46-2.04-.46-2.22,0-3.42,1.64-3.42,3.66,0,2.24,1.44,3.62,3.36,3.62,1,0,1.66-.26,2.16-.48l.3,1.32Z"/>
    <path class="cls-10" d="M578.38,116.26c.04,2.38,1.56,3.36,3.32,3.36,1.26,0,2.02-.22,2.68-.5l.3,1.26c-.62.28-1.68.6-3.22.6-2.98,0-4.76-1.96-4.76-4.88s1.72-5.22,4.54-5.22c3.16,0,4,2.78,4,4.56,0,.36-.04.64-.06.82h-6.8ZM583.54,115c.02-1.12-.46-2.86-2.44-2.86-1.78,0-2.56,1.64-2.7,2.86h5.14Z"/>
    <path class="cls-10" d="M587.18,118.98c.52.34,1.44.7,2.32.7,1.28,0,1.88-.64,1.88-1.44,0-.84-.5-1.3-1.8-1.78-1.74-.62-2.56-1.58-2.56-2.74,0-1.56,1.26-2.84,3.34-2.84.98,0,1.84.28,2.38.6l-.44,1.28c-.38-.24-1.08-.56-1.98-.56-1.04,0-1.62.6-1.62,1.32,0,.8.58,1.16,1.84,1.64,1.68.64,2.54,1.48,2.54,2.92,0,1.7-1.32,2.9-3.62,2.9-1.06,0-2.04-.26-2.72-.66l.44-1.34Z"/>
    <path class="cls-10" d="M595.1,118.98c.52.34,1.44.7,2.32.7,1.28,0,1.88-.64,1.88-1.44,0-.84-.5-1.3-1.8-1.78-1.74-.62-2.56-1.58-2.56-2.74,0-1.56,1.26-2.84,3.34-2.84.98,0,1.84.28,2.38.6l-.44,1.28c-.38-.24-1.08-.56-1.98-.56-1.04,0-1.62.6-1.62,1.32,0,.8.58,1.16,1.84,1.64,1.68.64,2.54,1.48,2.54,2.92,0,1.7-1.32,2.9-3.62,2.9-1.06,0-2.04-.26-2.72-.66l.44-1.34Z"/>
    <path class="cls-10" d="M615.58,114.14c0,4.42-1.64,6.86-4.52,6.86-2.54,0-4.26-2.38-4.3-6.68,0-4.36,1.88-6.76,4.52-6.76s4.3,2.44,4.3,6.58ZM608.52,114.34c0,3.38,1.04,5.3,2.64,5.3,1.8,0,2.66-2.1,2.66-5.42s-.82-5.3-2.64-5.3c-1.54,0-2.66,1.88-2.66,5.42Z"/>
    <path class="cls-10" d="M617.34,112.7c0-.74.5-1.26,1.2-1.26s1.16.52,1.18,1.26c0,.7-.46,1.24-1.2,1.24-.7,0-1.18-.54-1.18-1.24ZM617.34,119.76c0-.74.5-1.26,1.2-1.26s1.16.52,1.18,1.26c0,.7-.46,1.24-1.2,1.24-.7,0-1.18-.54-1.18-1.24Z"/>
    <path class="cls-10" d="M625.58,120.78v-1.08l1.38-1.34c3.32-3.16,4.82-4.84,4.84-6.8,0-1.32-.64-2.54-2.58-2.54-1.18,0-2.16.6-2.76,1.1l-.56-1.24c.9-.76,2.18-1.32,3.68-1.32,2.8,0,3.98,1.92,3.98,3.78,0,2.4-1.74,4.34-4.48,6.98l-1.04.96v.04h5.84v1.46h-8.3Z"/>
    <path class="cls-10" d="M643.6,109.26h-4.96l-.5,3.34c.3-.04.58-.08,1.06-.08,1,0,2,.22,2.8.7,1.02.58,1.86,1.7,1.86,3.34,0,2.54-2.02,4.44-4.84,4.44-1.42,0-2.62-.4-3.24-.8l.44-1.34c.54.32,1.6.72,2.78.72,1.66,0,3.08-1.08,3.08-2.82-.02-1.68-1.14-2.88-3.74-2.88-.74,0-1.32.08-1.8.14l.84-6.24h6.22v1.48Z"/>
    <path class="cls-10" d="M654.74,114.14c0,4.42-1.64,6.86-4.52,6.86-2.54,0-4.26-2.38-4.3-6.68,0-4.36,1.88-6.76,4.52-6.76s4.3,2.44,4.3,6.58ZM647.68,114.34c0,3.38,1.04,5.3,2.64,5.3,1.8,0,2.66-2.1,2.66-5.42s-.82-5.3-2.64-5.3c-1.54,0-2.66,1.88-2.66,5.42Z"/>
    <path class="cls-10" d="M661.16,114.12c0-1.14-.02-2.12-.08-3.02h1.54l.06,1.9h.08c.44-1.3,1.5-2.12,2.68-2.12.2,0,.34.02.5.06v1.66c-.18-.04-.36-.06-.6-.06-1.24,0-2.12.94-2.36,2.26-.04.24-.08.52-.08.82v5.16h-1.74v-6.66Z"/>
    <path class="cls-10" d="M676.26,115.86c0,3.58-2.48,5.14-4.82,5.14-2.62,0-4.64-1.92-4.64-4.98,0-3.24,2.12-5.14,4.8-5.14s4.66,2.02,4.66,4.98ZM668.58,115.96c0,2.12,1.22,3.72,2.94,3.72s2.94-1.58,2.94-3.76c0-1.64-.82-3.72-2.9-3.72s-2.98,1.92-2.98,3.76Z"/>
    <path class="cls-10" d="M679.04,111.1l1.28,4.92c.28,1.08.54,2.08.72,3.08h.06c.22-.98.54-2.02.86-3.06l1.58-4.94h1.48l1.5,4.84c.36,1.16.64,2.18.86,3.16h.06c.16-.98.42-2,.74-3.14l1.38-4.86h1.74l-3.12,9.68h-1.6l-1.48-4.62c-.34-1.08-.62-2.04-.86-3.18h-.04c-.24,1.16-.54,2.16-.88,3.2l-1.56,4.6h-1.6l-2.92-9.68h1.8Z"/>
    <path class="cls-10" d="M692.7,118.98c.52.34,1.44.7,2.32.7,1.28,0,1.88-.64,1.88-1.44,0-.84-.5-1.3-1.8-1.78-1.74-.62-2.56-1.58-2.56-2.74,0-1.56,1.26-2.84,3.34-2.84.98,0,1.84.28,2.38.6l-.44,1.28c-.38-.24-1.08-.56-1.98-.56-1.04,0-1.62.6-1.62,1.32,0,.8.58,1.16,1.84,1.64,1.68.64,2.54,1.48,2.54,2.92,0,1.7-1.32,2.9-3.62,2.9-1.06,0-2.04-.26-2.72-.66l.44-1.34Z"/>
  </g>
  <g>
    <path class="cls-10" d="M542.5,224.9c.84-.14,1.94-.26,3.34-.26,1.72,0,2.98.4,3.78,1.12.74.64,1.18,1.62,1.18,2.82s-.36,2.18-1.04,2.88c-.92.98-2.42,1.48-4.12,1.48-.52,0-1-.02-1.4-.12v5.4h-1.74v-13.32ZM544.24,231.4c.38.1.86.14,1.44.14,2.1,0,3.38-1.02,3.38-2.88s-1.26-2.64-3.18-2.64c-.76,0-1.34.06-1.64.14v5.24Z"/>
    <path class="cls-10" d="M552.76,231.56c0-1.14-.02-2.12-.08-3.02h1.54l.06,1.9h.08c.44-1.3,1.5-2.12,2.68-2.12.2,0,.34.02.5.06v1.66c-.18-.04-.36-.06-.6-.06-1.24,0-2.12.94-2.36,2.26-.04.24-.08.52-.08.82v5.16h-1.74v-6.66Z"/>
    <path class="cls-10" d="M567.86,233.3c0,3.58-2.48,5.14-4.82,5.14-2.62,0-4.64-1.92-4.64-4.98,0-3.24,2.12-5.14,4.8-5.14s4.66,2.02,4.66,4.98ZM560.18,233.4c0,2.12,1.22,3.72,2.94,3.72s2.94-1.58,2.94-3.76c0-1.64-.82-3.72-2.9-3.72s-2.98,1.92-2.98,3.76Z"/>
    <path class="cls-10" d="M576.98,237.86c-.46.24-1.48.56-2.78.56-2.92,0-4.82-1.98-4.82-4.94s2.04-5.14,5.2-5.14c1.04,0,1.96.26,2.44.5l-.4,1.36c-.42-.24-1.08-.46-2.04-.46-2.22,0-3.42,1.64-3.42,3.66,0,2.24,1.44,3.62,3.36,3.62,1,0,1.66-.26,2.16-.48l.3,1.32Z"/>
    <path class="cls-10" d="M579.9,233.7c.04,2.38,1.56,3.36,3.32,3.36,1.26,0,2.02-.22,2.68-.5l.3,1.26c-.62.28-1.68.6-3.22.6-2.98,0-4.76-1.96-4.76-4.88s1.72-5.22,4.54-5.22c3.16,0,4,2.78,4,4.56,0,.36-.04.64-.06.82h-6.8ZM585.06,232.44c.02-1.12-.46-2.86-2.44-2.86-1.78,0-2.56,1.64-2.7,2.86h5.14Z"/>
    <path class="cls-10" d="M588.7,236.42c.52.34,1.44.7,2.32.7,1.28,0,1.88-.64,1.88-1.44,0-.84-.5-1.3-1.8-1.78-1.74-.62-2.56-1.58-2.56-2.74,0-1.56,1.26-2.84,3.34-2.84.98,0,1.84.28,2.38.6l-.44,1.28c-.38-.24-1.08-.56-1.98-.56-1.04,0-1.62.6-1.62,1.32,0,.8.58,1.16,1.84,1.64,1.68.64,2.54,1.48,2.54,2.92,0,1.7-1.32,2.9-3.62,2.9-1.06,0-2.04-.26-2.72-.66l.44-1.34Z"/>
    <path class="cls-10" d="M596.62,236.42c.52.34,1.44.7,2.32.7,1.28,0,1.88-.64,1.88-1.44,0-.84-.5-1.3-1.8-1.78-1.74-.62-2.56-1.58-2.56-2.74,0-1.56,1.26-2.84,3.34-2.84.98,0,1.84.28,2.38.6l-.44,1.28c-.38-.24-1.08-.56-1.98-.56-1.04,0-1.62.6-1.62,1.32,0,.8.58,1.16,1.84,1.64,1.68.64,2.54,1.48,2.54,2.92,0,1.7-1.32,2.9-3.62,2.9-1.06,0-2.04-.26-2.72-.66l.44-1.34Z"/>
    <path class="cls-10" d="M612.28,226.86h-.04l-2.26,1.22-.34-1.34,2.84-1.52h1.5v13h-1.7v-11.36Z"/>
    <path class="cls-10" d="M618.86,230.14c0-.74.5-1.26,1.2-1.26s1.16.52,1.18,1.26c0,.7-.46,1.24-1.2,1.24-.7,0-1.18-.54-1.18-1.24ZM618.86,237.2c0-.74.5-1.26,1.2-1.26s1.16.52,1.18,1.26c0,.7-.46,1.24-1.2,1.24-.7,0-1.18-.54-1.18-1.24Z"/>
    <path class="cls-10" d="M627.1,238.22v-1.08l1.38-1.34c3.32-3.16,4.82-4.84,4.84-6.8,0-1.32-.64-2.54-2.58-2.54-1.18,0-2.16.6-2.76,1.1l-.56-1.24c.9-.76,2.18-1.32,3.68-1.32,2.8,0,3.98,1.92,3.98,3.78,0,2.4-1.74,4.34-4.48,6.98l-1.04.96v.04h5.84v1.46h-8.3Z"/>
    <path class="cls-10" d="M645.12,226.7h-4.96l-.5,3.34c.3-.04.58-.08,1.06-.08,1,0,2,.22,2.8.7,1.02.58,1.86,1.7,1.86,3.34,0,2.54-2.02,4.44-4.84,4.44-1.42,0-2.62-.4-3.24-.8l.44-1.34c.54.32,1.6.72,2.78.72,1.66,0,3.08-1.08,3.08-2.82-.02-1.68-1.14-2.88-3.74-2.88-.74,0-1.32.08-1.8.14l.84-6.24h6.22v1.48Z"/>
    <path class="cls-10" d="M656.26,231.58c0,4.42-1.64,6.86-4.52,6.86-2.54,0-4.26-2.38-4.3-6.68,0-4.36,1.88-6.76,4.52-6.76s4.3,2.44,4.3,6.58ZM649.2,231.78c0,3.38,1.04,5.3,2.64,5.3,1.8,0,2.66-2.1,2.66-5.42s-.82-5.3-2.64-5.3c-1.54,0-2.66,1.88-2.66,5.42Z"/>
    <path class="cls-10" d="M662.68,231.56c0-1.14-.02-2.12-.08-3.02h1.54l.06,1.9h.08c.44-1.3,1.5-2.12,2.68-2.12.2,0,.34.02.5.06v1.66c-.18-.04-.36-.06-.6-.06-1.24,0-2.12.94-2.36,2.26-.04.24-.08.52-.08.82v5.16h-1.74v-6.66Z"/>
    <path class="cls-10" d="M677.78,233.3c0,3.58-2.48,5.14-4.82,5.14-2.62,0-4.64-1.92-4.64-4.98,0-3.24,2.12-5.14,4.8-5.14s4.66,2.02,4.66,4.98ZM670.1,233.4c0,2.12,1.22,3.72,2.94,3.72s2.94-1.58,2.94-3.76c0-1.64-.82-3.72-2.9-3.72s-2.98,1.92-2.98,3.76Z"/>
    <path class="cls-10" d="M680.56,228.54l1.28,4.92c.28,1.08.54,2.08.72,3.08h.06c.22-.98.54-2.02.86-3.06l1.58-4.94h1.48l1.5,4.84c.36,1.16.64,2.18.86,3.16h.06c.16-.98.42-2,.74-3.14l1.38-4.86h1.74l-3.12,9.68h-1.6l-1.48-4.62c-.34-1.08-.62-2.04-.86-3.18h-.04c-.24,1.16-.54,2.16-.88,3.2l-1.56,4.6h-1.6l-2.92-9.68h1.8Z"/>
    <path class="cls-10" d="M694.22,236.42c.52.34,1.44.7,2.32.7,1.28,0,1.88-.64,1.88-1.44,0-.84-.5-1.3-1.8-1.78-1.74-.62-2.56-1.58-2.56-2.74,0-1.56,1.26-2.84,3.34-2.84.98,0,1.84.28,2.38.6l-.44,1.28c-.38-.24-1.08-.56-1.98-.56-1.04,0-1.62.6-1.62,1.32,0,.8.58,1.16,1.84,1.64,1.68.64,2.54,1.48,2.54,2.92,0,1.7-1.32,2.9-3.62,2.9-1.06,0-2.04-.26-2.72-.66l.44-1.34Z"/>
  </g>
  <g>
    <path class="cls-10" d="M542.5,340.58c.84-.14,1.94-.26,3.34-.26,1.72,0,2.98.4,3.78,1.12.74.64,1.18,1.62,1.18,2.82s-.36,2.18-1.04,2.88c-.92.98-2.42,1.48-4.12,1.48-.52,0-1-.02-1.4-.12v5.4h-1.74v-13.32ZM544.24,347.08c.38.1.86.14,1.44.14,2.1,0,3.38-1.02,3.38-2.88s-1.26-2.64-3.18-2.64c-.76,0-1.34.06-1.64.14v5.24Z"/>
    <path class="cls-10" d="M552.76,347.24c0-1.14-.02-2.12-.08-3.02h1.54l.06,1.9h.08c.44-1.3,1.5-2.12,2.68-2.12.2,0,.34.02.5.06v1.66c-.18-.04-.36-.06-.6-.06-1.24,0-2.12.94-2.36,2.26-.04.24-.08.52-.08.82v5.16h-1.74v-6.66Z"/>
    <path class="cls-10" d="M567.86,348.98c0,3.58-2.48,5.14-4.82,5.14-2.62,0-4.64-1.92-4.64-4.98,0-3.24,2.12-5.14,4.8-5.14s4.66,2.02,4.66,4.98ZM560.18,349.08c0,2.12,1.22,3.72,2.94,3.72s2.94-1.58,2.94-3.76c0-1.64-.82-3.72-2.9-3.72s-2.98,1.92-2.98,3.76Z"/>
    <path class="cls-10" d="M576.98,353.54c-.46.24-1.48.56-2.78.56-2.92,0-4.82-1.98-4.82-4.94s2.04-5.14,5.2-5.14c1.04,0,1.96.26,2.44.5l-.4,1.36c-.42-.24-1.08-.46-2.04-.46-2.22,0-3.42,1.64-3.42,3.66,0,2.24,1.44,3.62,3.36,3.62,1,0,1.66-.26,2.16-.48l.3,1.32Z"/>
    <path class="cls-10" d="M579.9,349.38c.04,2.38,1.56,3.36,3.32,3.36,1.26,0,2.02-.22,2.68-.5l.3,1.26c-.62.28-1.68.6-3.22.6-2.98,0-4.76-1.96-4.76-4.88s1.72-5.22,4.54-5.22c3.16,0,4,2.78,4,4.56,0,.36-.04.64-.06.82h-6.8ZM585.06,348.12c.02-1.12-.46-2.86-2.44-2.86-1.78,0-2.56,1.64-2.7,2.86h5.14Z"/>
    <path class="cls-10" d="M588.7,352.1c.52.34,1.44.7,2.32.7,1.28,0,1.88-.64,1.88-1.44,0-.84-.5-1.3-1.8-1.78-1.74-.62-2.56-1.58-2.56-2.74,0-1.56,1.26-2.84,3.34-2.84.98,0,1.84.28,2.38.6l-.44,1.28c-.38-.24-1.08-.56-1.98-.56-1.04,0-1.62.6-1.62,1.32,0,.8.58,1.16,1.84,1.64,1.68.64,2.54,1.48,2.54,2.92,0,1.7-1.32,2.9-3.62,2.9-1.06,0-2.04-.26-2.72-.66l.44-1.34Z"/>
    <path class="cls-10" d="M596.62,352.1c.52.34,1.44.7,2.32.7,1.28,0,1.88-.64,1.88-1.44,0-.84-.5-1.3-1.8-1.78-1.74-.62-2.56-1.58-2.56-2.74,0-1.56,1.26-2.84,3.34-2.84.98,0,1.84.28,2.38.6l-.44,1.28c-.38-.24-1.08-.56-1.98-.56-1.04,0-1.62.6-1.62,1.32,0,.8.58,1.16,1.84,1.64,1.68.64,2.54,1.48,2.54,2.92,0,1.7-1.32,2.9-3.62,2.9-1.06,0-2.04-.26-2.72-.66l.44-1.34Z"/>
    <path class="cls-10" d="M608.46,353.9v-1.08l1.38-1.34c3.32-3.16,4.82-4.84,4.84-6.8,0-1.32-.64-2.54-2.58-2.54-1.18,0-2.16.6-2.76,1.1l-.56-1.24c.9-.76,2.18-1.32,3.68-1.32,2.8,0,3.98,1.92,3.98,3.78,0,2.4-1.74,4.34-4.48,6.98l-1.04.96v.04h5.84v1.46h-8.3Z"/>
    <path class="cls-10" d="M618.86,345.82c0-.74.5-1.26,1.2-1.26s1.16.52,1.18,1.26c0,.7-.46,1.24-1.2,1.24-.7,0-1.18-.54-1.18-1.24ZM618.86,352.88c0-.74.5-1.26,1.2-1.26s1.16.52,1.18,1.26c0,.7-.46,1.24-1.2,1.24-.7,0-1.18-.54-1.18-1.24Z"/>
    <path class="cls-10" d="M627.1,353.9v-1.08l1.38-1.34c3.32-3.16,4.82-4.84,4.84-6.8,0-1.32-.64-2.54-2.58-2.54-1.18,0-2.16.6-2.76,1.1l-.56-1.24c.9-.76,2.18-1.32,3.68-1.32,2.8,0,3.98,1.92,3.98,3.78,0,2.4-1.74,4.34-4.48,6.98l-1.04.96v.04h5.84v1.46h-8.3Z"/>
    <path class="cls-10" d="M645.12,342.38h-4.96l-.5,3.34c.3-.04.58-.08,1.06-.08,1,0,2,.22,2.8.7,1.02.58,1.86,1.7,1.86,3.34,0,2.54-2.02,4.44-4.84,4.44-1.42,0-2.62-.4-3.24-.8l.44-1.34c.54.32,1.6.72,2.78.72,1.66,0,3.08-1.08,3.08-2.82-.02-1.68-1.14-2.88-3.74-2.88-.74,0-1.32.08-1.8.14l.84-6.24h6.22v1.48Z"/>
    <path class="cls-10" d="M656.26,347.26c0,4.42-1.64,6.86-4.52,6.86-2.54,0-4.26-2.38-4.3-6.68,0-4.36,1.88-6.76,4.52-6.76s4.3,2.44,4.3,6.58ZM649.2,347.46c0,3.38,1.04,5.3,2.64,5.3,1.8,0,2.66-2.1,2.66-5.42s-.82-5.3-2.64-5.3c-1.54,0-2.66,1.88-2.66,5.42Z"/>
    <path class="cls-10" d="M662.68,347.24c0-1.14-.02-2.12-.08-3.02h1.54l.06,1.9h.08c.44-1.3,1.5-2.12,2.68-2.12.2,0,.34.02.5.06v1.66c-.18-.04-.36-.06-.6-.06-1.24,0-2.12.94-2.36,2.26-.04.24-.08.52-.08.82v5.16h-1.74v-6.66Z"/>
    <path class="cls-10" d="M677.78,348.98c0,3.58-2.48,5.14-4.82,5.14-2.62,0-4.64-1.92-4.64-4.98,0-3.24,2.12-5.14,4.8-5.14s4.66,2.02,4.66,4.98ZM670.1,349.08c0,2.12,1.22,3.72,2.94,3.72s2.94-1.58,2.94-3.76c0-1.64-.82-3.72-2.9-3.72s-2.98,1.92-2.98,3.76Z"/>
    <path class="cls-10" d="M680.56,344.22l1.28,4.92c.28,1.08.54,2.08.72,3.08h.06c.22-.98.54-2.02.86-3.06l1.58-4.94h1.48l1.5,4.84c.36,1.16.64,2.18.86,3.16h.06c.16-.98.42-2,.74-3.14l1.38-4.86h1.74l-3.12,9.68h-1.6l-1.48-4.62c-.34-1.08-.62-2.04-.86-3.18h-.04c-.24,1.16-.54,2.16-.88,3.2l-1.56,4.6h-1.6l-2.92-9.68h1.8Z"/>
    <path class="cls-10" d="M694.22,352.1c.52.34,1.44.7,2.32.7,1.28,0,1.88-.64,1.88-1.44,0-.84-.5-1.3-1.8-1.78-1.74-.62-2.56-1.58-2.56-2.74,0-1.56,1.26-2.84,3.34-2.84.98,0,1.84.28,2.38.6l-.44,1.28c-.38-.24-1.08-.56-1.98-.56-1.04,0-1.62.6-1.62,1.32,0,.8.58,1.16,1.84,1.64,1.68.64,2.54,1.48,2.54,2.92,0,1.7-1.32,2.9-3.62,2.9-1.06,0-2.04-.26-2.72-.66l.44-1.34Z"/>
  </g>
  <g>
    <path class="cls-10" d="M542.5,460.44c.84-.14,1.94-.26,3.34-.26,1.72,0,2.98.4,3.78,1.12.74.64,1.18,1.62,1.18,2.82s-.36,2.18-1.04,2.88c-.92.98-2.42,1.48-4.12,1.48-.52,0-1-.02-1.4-.12v5.4h-1.74v-13.32ZM544.24,466.94c.38.1.86.14,1.44.14,2.1,0,3.38-1.02,3.38-2.88s-1.26-2.64-3.18-2.64c-.76,0-1.34.06-1.64.14v5.24Z"/>
    <path class="cls-10" d="M552.76,467.1c0-1.14-.02-2.12-.08-3.02h1.54l.06,1.9h.08c.44-1.3,1.5-2.12,2.68-2.12.2,0,.34.02.5.06v1.66c-.18-.04-.36-.06-.6-.06-1.24,0-2.12.94-2.36,2.26-.04.24-.08.52-.08.82v5.16h-1.74v-6.66Z"/>
    <path class="cls-10" d="M567.86,468.84c0,3.58-2.48,5.14-4.82,5.14-2.62,0-4.64-1.92-4.64-4.98,0-3.24,2.12-5.14,4.8-5.14s4.66,2.02,4.66,4.98ZM560.18,468.94c0,2.12,1.22,3.72,2.94,3.72s2.94-1.58,2.94-3.76c0-1.64-.82-3.72-2.9-3.72s-2.98,1.92-2.98,3.76Z"/>
    <path class="cls-10" d="M576.98,473.4c-.46.24-1.48.56-2.78.56-2.92,0-4.82-1.98-4.82-4.94s2.04-5.14,5.2-5.14c1.04,0,1.96.26,2.44.5l-.4,1.36c-.42-.24-1.08-.46-2.04-.46-2.22,0-3.42,1.64-3.42,3.66,0,2.24,1.44,3.62,3.36,3.62,1,0,1.66-.26,2.16-.48l.3,1.32Z"/>
    <path class="cls-10" d="M579.9,469.24c.04,2.38,1.56,3.36,3.32,3.36,1.26,0,2.02-.22,2.68-.5l.3,1.26c-.62.28-1.68.6-3.22.6-2.98,0-4.76-1.96-4.76-4.88s1.72-5.22,4.54-5.22c3.16,0,4,2.78,4,4.56,0,.36-.04.64-.06.82h-6.8ZM585.06,467.98c.02-1.12-.46-2.86-2.44-2.86-1.78,0-2.56,1.64-2.7,2.86h5.14Z"/>
    <path class="cls-10" d="M588.7,471.96c.52.34,1.44.7,2.32.7,1.28,0,1.88-.64,1.88-1.44s-.5-1.3-1.8-1.78c-1.74-.62-2.56-1.58-2.56-2.74,0-1.56,1.26-2.84,3.34-2.84.98,0,1.84.28,2.38.6l-.44,1.28c-.38-.24-1.08-.56-1.98-.56-1.04,0-1.62.6-1.62,1.32,0,.8.58,1.16,1.84,1.64,1.68.64,2.54,1.48,2.54,2.92,0,1.7-1.32,2.9-3.62,2.9-1.06,0-2.04-.26-2.72-.66l.44-1.34Z"/>
    <path class="cls-10" d="M596.62,471.96c.52.34,1.44.7,2.32.7,1.28,0,1.88-.64,1.88-1.44s-.5-1.3-1.8-1.78c-1.74-.62-2.56-1.58-2.56-2.74,0-1.56,1.26-2.84,3.34-2.84.98,0,1.84.28,2.38.6l-.44,1.28c-.38-.24-1.08-.56-1.98-.56-1.04,0-1.62.6-1.62,1.32,0,.8.58,1.16,1.84,1.64,1.68.64,2.54,1.48,2.54,2.92,0,1.7-1.32,2.9-3.62,2.9-1.06,0-2.04-.26-2.72-.66l.44-1.34Z"/>
    <path class="cls-10" d="M613.9,473.76v-3.54h-6.04v-1.16l5.8-8.3h1.9v8.08h1.82v1.38h-1.82v3.54h-1.66ZM613.9,468.84v-4.34c0-.68.02-1.36.06-2.04h-.06c-.4.76-.72,1.32-1.08,1.92l-3.18,4.42v.04h4.26Z"/>
    <path class="cls-10" d="M618.86,465.68c0-.74.5-1.26,1.2-1.26s1.16.52,1.18,1.26c0,.7-.46,1.24-1.2,1.24-.7,0-1.18-.54-1.18-1.24ZM618.86,472.74c0-.74.5-1.26,1.2-1.26s1.16.52,1.18,1.26c0,.7-.46,1.24-1.2,1.24-.7,0-1.18-.54-1.18-1.24Z"/>
    <path class="cls-10" d="M627.1,473.76v-1.08l1.38-1.34c3.32-3.16,4.82-4.84,4.84-6.8,0-1.32-.64-2.54-2.58-2.54-1.18,0-2.16.6-2.76,1.1l-.56-1.24c.9-.76,2.18-1.32,3.68-1.32,2.8,0,3.98,1.92,3.98,3.78,0,2.4-1.74,4.34-4.48,6.98l-1.04.96v.04h5.84v1.46h-8.3Z"/>
    <path class="cls-10" d="M645.12,462.24h-4.96l-.5,3.34c.3-.04.58-.08,1.06-.08,1,0,2,.22,2.8.7,1.02.58,1.86,1.7,1.86,3.34,0,2.54-2.02,4.44-4.84,4.44-1.42,0-2.62-.4-3.24-.8l.44-1.34c.54.32,1.6.72,2.78.72,1.66,0,3.08-1.08,3.08-2.82-.02-1.68-1.14-2.88-3.74-2.88-.74,0-1.32.08-1.8.14l.84-6.24h6.22v1.48Z"/>
    <path class="cls-10" d="M656.26,467.12c0,4.42-1.64,6.86-4.52,6.86-2.54,0-4.26-2.38-4.3-6.68,0-4.36,1.88-6.76,4.52-6.76s4.3,2.44,4.3,6.58ZM649.2,467.32c0,3.38,1.04,5.3,2.64,5.3,1.8,0,2.66-2.1,2.66-5.42s-.82-5.3-2.64-5.3c-1.54,0-2.66,1.88-2.66,5.42Z"/>
    <path class="cls-10" d="M662.68,467.1c0-1.14-.02-2.12-.08-3.02h1.54l.06,1.9h.08c.44-1.3,1.5-2.12,2.68-2.12.2,0,.34.02.5.06v1.66c-.18-.04-.36-.06-.6-.06-1.24,0-2.12.94-2.36,2.26-.04.24-.08.52-.08.82v5.16h-1.74v-6.66Z"/>
    <path class="cls-10" d="M677.78,468.84c0,3.58-2.48,5.14-4.82,5.14-2.62,0-4.64-1.92-4.64-4.98,0-3.24,2.12-5.14,4.8-5.14s4.66,2.02,4.66,4.98ZM670.1,468.94c0,2.12,1.22,3.72,2.94,3.72s2.94-1.58,2.94-3.76c0-1.64-.82-3.72-2.9-3.72s-2.98,1.92-2.98,3.76Z"/>
    <path class="cls-10" d="M680.56,464.08l1.28,4.92c.28,1.08.54,2.08.72,3.08h.06c.22-.98.54-2.02.86-3.06l1.58-4.94h1.48l1.5,4.84c.36,1.16.64,2.18.86,3.16h.06c.16-.98.42-2,.74-3.14l1.38-4.86h1.74l-3.12,9.68h-1.6l-1.48-4.62c-.34-1.08-.62-2.04-.86-3.18h-.04c-.24,1.16-.54,2.16-.88,3.2l-1.56,4.6h-1.6l-2.92-9.68h1.8Z"/>
    <path class="cls-10" d="M694.22,471.96c.52.34,1.44.7,2.32.7,1.28,0,1.88-.64,1.88-1.44s-.5-1.3-1.8-1.78c-1.74-.62-2.56-1.58-2.56-2.74,0-1.56,1.26-2.84,3.34-2.84.98,0,1.84.28,2.38.6l-.44,1.28c-.38-.24-1.08-.56-1.98-.56-1.04,0-1.62.6-1.62,1.32,0,.8.58,1.16,1.84,1.64,1.68.64,2.54,1.48,2.54,2.92,0,1.7-1.32,2.9-3.62,2.9-1.06,0-2.04-.26-2.72-.66l.44-1.34Z"/>
  </g>
  <rect class="cls-3" x="956.94" y="93.06" width="26.31" height="402.3"/>
  <g>
    <path class="cls-10" d="M952.28,64.08v13.48h-1.74v-13.48h1.74Z"/>
    <path class="cls-10" d="M955.46,70.5c0-1-.02-1.82-.08-2.62h1.56l.1,1.6h.04c.48-.92,1.6-1.82,3.2-1.82,1.34,0,3.42.8,3.42,4.12v5.78h-1.76v-5.58c0-1.56-.58-2.86-2.24-2.86-1.16,0-2.06.82-2.36,1.8-.08.22-.12.52-.12.82v5.82h-1.76v-7.06Z"/>
    <path class="cls-10" d="M966.56,71.04c0-1.24-.04-2.24-.08-3.16h1.58l.08,1.66h.04c.72-1.18,1.86-1.88,3.44-1.88,2.34,0,4.1,1.98,4.1,4.92,0,3.48-2.12,5.2-4.4,5.2-1.28,0-2.4-.56-2.98-1.52h-.04v5.26h-1.74v-10.48ZM968.3,73.63c0,.26.04.5.08.72.32,1.22,1.38,2.06,2.64,2.06,1.86,0,2.94-1.52,2.94-3.74,0-1.94-1.02-3.6-2.88-3.6-1.2,0-2.32.86-2.66,2.18-.06.22-.12.48-.12.72v1.66Z"/>
    <path class="cls-10" d="M986.04,74.93c0,1,.02,1.88.08,2.64h-1.56l-.1-1.58h-.04c-.46.78-1.48,1.8-3.2,1.8-1.52,0-3.34-.84-3.34-4.24v-5.66h1.76v5.36c0,1.84.56,3.08,2.16,3.08,1.18,0,2-.82,2.32-1.6.1-.26.16-.58.16-.9v-5.94h1.76v7.04Z"/>
    <path class="cls-10" d="M991.08,65.1v2.78h2.52v1.34h-2.52v5.22c0,1.2.34,1.88,1.32,1.88.46,0,.8-.06,1.02-.12l.08,1.32c-.34.14-.88.24-1.56.24-.82,0-1.48-.26-1.9-.74-.5-.52-.68-1.38-.68-2.52v-5.28h-1.5v-1.34h1.5v-2.32l1.72-.46Z"/>
  </g>
  <g>
    <path class="cls-10" d="M949.46,523.16l-4.4-13.48h1.88l2.1,6.64c.58,1.82,1.08,3.46,1.44,5.04h.04c.38-1.56.94-3.26,1.54-5.02l2.28-6.66h1.86l-4.82,13.48h-1.92Z"/>
    <path class="cls-10" d="M957.92,518.64c.04,2.38,1.56,3.36,3.32,3.36,1.26,0,2.02-.22,2.68-.5l.3,1.26c-.62.28-1.68.6-3.22.6-2.98,0-4.76-1.96-4.76-4.88s1.72-5.22,4.54-5.22c3.16,0,4,2.78,4,4.56,0,.36-.04.64-.06.82h-6.8ZM963.08,517.38c.02-1.12-.46-2.86-2.44-2.86-1.78,0-2.56,1.64-2.7,2.86h5.14Z"/>
    <path class="cls-10" d="M973.86,522.8c-.46.24-1.48.56-2.78.56-2.92,0-4.82-1.98-4.82-4.94s2.04-5.14,5.2-5.14c1.04,0,1.96.26,2.44.5l-.4,1.36c-.42-.24-1.08-.46-2.04-.46-2.22,0-3.42,1.64-3.42,3.66,0,2.24,1.44,3.62,3.36,3.62,1,0,1.66-.26,2.16-.48l.3,1.32Z"/>
    <path class="cls-10" d="M978.3,510.7v2.78h2.52v1.34h-2.52v5.22c0,1.2.34,1.88,1.32,1.88.46,0,.8-.06,1.02-.12l.08,1.32c-.34.14-.88.24-1.56.24-.82,0-1.48-.26-1.9-.74-.5-.52-.68-1.38-.68-2.52v-5.28h-1.5v-1.34h1.5v-2.32l1.72-.46Z"/>
    <path class="cls-10" d="M991.44,518.24c0,3.58-2.48,5.14-4.82,5.14-2.62,0-4.64-1.92-4.64-4.98,0-3.24,2.12-5.14,4.8-5.14s4.66,2.02,4.66,4.98ZM983.76,518.34c0,2.12,1.22,3.72,2.94,3.72s2.94-1.58,2.94-3.76c0-1.64-.82-3.72-2.9-3.72s-2.98,1.92-2.98,3.76Z"/>
    <path class="cls-10" d="M993.66,516.5c0-1.14-.02-2.12-.08-3.02h1.54l.06,1.9h.08c.44-1.3,1.5-2.12,2.68-2.12.2,0,.34.02.5.06v1.66c-.18-.04-.36-.06-.6-.06-1.24,0-2.12.94-2.36,2.26-.04.24-.08.52-.08.82v5.16h-1.74v-6.66Z"/>
  </g>
  <g>
    <path class="cls-10" d="M537.52,64.26c1.06-.16,2.32-.28,3.7-.28,2.5,0,4.28.58,5.46,1.68,1.2,1.1,1.9,2.66,1.9,4.84s-.68,4-1.94,5.24c-1.26,1.26-3.34,1.94-5.96,1.94-1.24,0-2.28-.06-3.16-.16v-13.26ZM539.26,76.19c.44.08,1.08.1,1.76.1,3.72,0,5.74-2.08,5.74-5.72.02-3.18-1.78-5.2-5.46-5.2-.9,0-1.58.08-2.04.18v10.64Z"/>
    <path class="cls-10" d="M552.74,65.16c.02.6-.42,1.08-1.12,1.08-.62,0-1.06-.48-1.06-1.08s.46-1.1,1.1-1.1,1.08.48,1.08,1.1ZM550.78,77.57v-9.68h1.76v9.68h-1.76Z"/>
    <path class="cls-10" d="M555.22,75.77c.52.34,1.44.7,2.32.7,1.28,0,1.88-.64,1.88-1.44,0-.84-.5-1.3-1.8-1.78-1.74-.62-2.56-1.58-2.56-2.74,0-1.56,1.26-2.84,3.34-2.84.98,0,1.84.28,2.38.6l-.44,1.28c-.38-.24-1.08-.56-1.98-.56-1.04,0-1.62.6-1.62,1.32,0,.8.58,1.16,1.84,1.64,1.68.64,2.54,1.48,2.54,2.92,0,1.7-1.32,2.9-3.62,2.9-1.06,0-2.04-.26-2.72-.66l.44-1.34Z"/>
    <path class="cls-10" d="M565.5,65.1v2.78h2.52v1.34h-2.52v5.22c0,1.2.34,1.88,1.32,1.88.46,0,.8-.06,1.02-.12l.08,1.32c-.34.14-.88.24-1.56.24-.82,0-1.48-.26-1.9-.74-.5-.52-.68-1.38-.68-2.52v-5.28h-1.5v-1.34h1.5v-2.32l1.72-.46Z"/>
    <path class="cls-10" d="M570,70.9c0-1.14-.02-2.12-.08-3.02h1.54l.06,1.9h.08c.44-1.3,1.5-2.12,2.68-2.12.2,0,.34.02.5.06v1.66c-.18-.04-.36-.06-.6-.06-1.24,0-2.12.94-2.36,2.26-.04.24-.08.52-.08.82v5.16h-1.74v-6.66Z"/>
    <path class="cls-10" d="M578.58,65.16c.02.6-.42,1.08-1.12,1.08-.62,0-1.06-.48-1.06-1.08s.46-1.1,1.1-1.1,1.08.48,1.08,1.1ZM576.62,77.57v-9.68h1.76v9.68h-1.76Z"/>
    <path class="cls-10" d="M581.22,77.57c.04-.66.08-1.64.08-2.5v-11.7h1.74v6.08h.04c.62-1.08,1.74-1.78,3.3-1.78,2.4,0,4.1,2,4.08,4.94,0,3.46-2.18,5.18-4.34,5.18-1.4,0-2.52-.54-3.24-1.82h-.06l-.08,1.6h-1.52ZM583.04,73.69c0,.22.04.44.08.64.34,1.22,1.36,2.06,2.64,2.06,1.84,0,2.94-1.5,2.94-3.72,0-1.94-1-3.6-2.88-3.6-1.2,0-2.32.82-2.68,2.16-.04.2-.1.44-.1.72v1.74Z"/>
    <path class="cls-10" d="M600.78,74.93c0,1,.02,1.88.08,2.64h-1.56l-.1-1.58h-.04c-.46.78-1.48,1.8-3.2,1.8-1.52,0-3.34-.84-3.34-4.24v-5.66h1.76v5.36c0,1.84.56,3.08,2.16,3.08,1.18,0,2-.82,2.32-1.6.1-.26.16-.58.16-.9v-5.94h1.76v7.04Z"/>
    <path class="cls-10" d="M605.82,65.1v2.78h2.52v1.34h-2.52v5.22c0,1.2.34,1.88,1.32,1.88.46,0,.8-.06,1.02-.12l.08,1.32c-.34.14-.88.24-1.56.24-.82,0-1.48-.26-1.9-.74-.5-.52-.68-1.38-.68-2.52v-5.28h-1.5v-1.34h1.5v-2.32l1.72-.46Z"/>
    <path class="cls-10" d="M611.18,73.05c.04,2.38,1.56,3.36,3.32,3.36,1.26,0,2.02-.22,2.68-.5l.3,1.26c-.62.28-1.68.6-3.22.6-2.98,0-4.76-1.96-4.76-4.88s1.72-5.22,4.54-5.22c3.16,0,4,2.78,4,4.56,0,.36-.04.64-.06.82h-6.8ZM616.34,71.79c.02-1.12-.46-2.86-2.44-2.86-1.78,0-2.56,1.64-2.7,2.86h5.14Z"/>
    <path class="cls-10" d="M628.58,63.36v11.7c0,.86.02,1.84.08,2.5h-1.58l-.08-1.68h-.04c-.54,1.08-1.72,1.9-3.3,1.9-2.34,0-4.14-1.98-4.14-4.92-.02-3.22,1.98-5.2,4.34-5.2,1.48,0,2.48.7,2.92,1.48h.04v-5.78h1.76ZM626.82,71.83c0-.22-.02-.52-.08-.74-.26-1.12-1.22-2.04-2.54-2.04-1.82,0-2.9,1.6-2.9,3.74,0,1.96.96,3.58,2.86,3.58,1.18,0,2.26-.78,2.58-2.1.06-.24.08-.48.08-.76v-1.68Z"/>
    <path class="cls-10" d="M635.74,63.36h1.76v14.2h-1.76v-14.2Z"/>
    <path class="cls-10" d="M649.22,72.65c0,3.58-2.48,5.14-4.82,5.14-2.62,0-4.64-1.92-4.64-4.98,0-3.24,2.12-5.14,4.8-5.14s4.66,2.02,4.66,4.98ZM641.54,72.75c0,2.12,1.22,3.72,2.94,3.72s2.94-1.58,2.94-3.76c0-1.64-.82-3.72-2.9-3.72s-2.98,1.92-2.98,3.76Z"/>
    <path class="cls-10" d="M658.34,77.21c-.46.24-1.48.56-2.78.56-2.92,0-4.82-1.98-4.82-4.94s2.04-5.14,5.2-5.14c1.04,0,1.96.26,2.44.5l-.4,1.36c-.42-.24-1.08-.46-2.04-.46-2.22,0-3.42,1.64-3.42,3.66,0,2.24,1.44,3.62,3.36,3.62,1,0,1.66-.26,2.16-.48l.3,1.32Z"/>
    <path class="cls-10" d="M665.76,77.57l-.14-1.22h-.06c-.54.76-1.58,1.44-2.96,1.44-1.96,0-2.96-1.38-2.96-2.78,0-2.34,2.08-3.62,5.82-3.6v-.2c0-.8-.22-2.24-2.2-2.24-.9,0-1.84.28-2.52.72l-.4-1.16c.8-.52,1.96-.86,3.18-.86,2.96,0,3.68,2.02,3.68,3.96v3.62c0,.84.04,1.66.16,2.32h-1.6ZM665.5,72.63c-1.92-.04-4.1.3-4.1,2.18,0,1.14.76,1.68,1.66,1.68,1.26,0,2.06-.8,2.34-1.62.06-.18.1-.38.1-.56v-1.68Z"/>
    <path class="cls-10" d="M670.04,63.36h1.76v14.2h-1.76v-14.2Z"/>
    <path class="cls-10" d="M679,70.5c0-1-.02-1.82-.08-2.62h1.54l.08,1.56h.06c.54-.92,1.44-1.78,3.04-1.78,1.32,0,2.32.8,2.74,1.94h.04c.3-.54.68-.96,1.08-1.26.58-.44,1.22-.68,2.14-.68,1.28,0,3.18.84,3.18,4.2v5.7h-1.72v-5.48c0-1.86-.68-2.98-2.1-2.98-1,0-1.78.74-2.08,1.6-.08.24-.14.56-.14.88v5.98h-1.72v-5.8c0-1.54-.68-2.66-2.02-2.66-1.1,0-1.9.88-2.18,1.76-.1.26-.14.56-.14.86v5.84h-1.72v-7.06Z"/>
    <path class="cls-10" d="M701.04,77.57l-.14-1.22h-.06c-.54.76-1.58,1.44-2.96,1.44-1.96,0-2.96-1.38-2.96-2.78,0-2.34,2.08-3.62,5.82-3.6v-.2c0-.8-.22-2.24-2.2-2.24-.9,0-1.84.28-2.52.72l-.4-1.16c.8-.52,1.96-.86,3.18-.86,2.96,0,3.68,2.02,3.68,3.96v3.62c0,.84.04,1.66.16,2.32h-1.6ZM700.78,72.63c-1.92-.04-4.1.3-4.1,2.18,0,1.14.76,1.68,1.66,1.68,1.26,0,2.06-.8,2.34-1.62.06-.18.1-.38.1-.56v-1.68Z"/>
    <path class="cls-10" d="M707.36,65.1v2.78h2.52v1.34h-2.52v5.22c0,1.2.34,1.88,1.32,1.88.46,0,.8-.06,1.02-.12l.08,1.32c-.34.14-.88.24-1.56.24-.82,0-1.48-.26-1.9-.74-.5-.52-.68-1.38-.68-2.52v-5.28h-1.5v-1.34h1.5v-2.32l1.72-.46Z"/>
    <path class="cls-10" d="M711.86,70.9c0-1.14-.02-2.12-.08-3.02h1.54l.06,1.9h.08c.44-1.3,1.5-2.12,2.68-2.12.2,0,.34.02.5.06v1.66c-.18-.04-.36-.06-.6-.06-1.24,0-2.12.94-2.36,2.26-.04.24-.08.52-.08.82v5.16h-1.74v-6.66Z"/>
    <path class="cls-10" d="M720.44,65.16c.02.6-.42,1.08-1.12,1.08-.62,0-1.06-.48-1.06-1.08s.46-1.1,1.1-1.1,1.08.48,1.08,1.1ZM718.48,77.57v-9.68h1.76v9.68h-1.76Z"/>
    <path class="cls-10" d="M730.06,77.21c-.46.24-1.48.56-2.78.56-2.92,0-4.82-1.98-4.82-4.94s2.04-5.14,5.2-5.14c1.04,0,1.96.26,2.44.5l-.4,1.36c-.42-.24-1.08-.46-2.04-.46-2.22,0-3.42,1.64-3.42,3.66,0,2.24,1.44,3.62,3.36,3.62,1,0,1.66-.26,2.16-.48l.3,1.32Z"/>
    <path class="cls-10" d="M732.98,73.05c.04,2.38,1.56,3.36,3.32,3.36,1.26,0,2.02-.22,2.68-.5l.3,1.26c-.62.28-1.68.6-3.22.6-2.98,0-4.76-1.96-4.76-4.88s1.72-5.22,4.54-5.22c3.16,0,4,2.78,4,4.56,0,.36-.04.64-.06.82h-6.8ZM738.14,71.79c.02-1.12-.46-2.86-2.44-2.86-1.78,0-2.56,1.64-2.7,2.86h5.14Z"/>
    <path class="cls-10" d="M741.78,75.77c.52.34,1.44.7,2.32.7,1.28,0,1.88-.64,1.88-1.44,0-.84-.5-1.3-1.8-1.78-1.74-.62-2.56-1.58-2.56-2.74,0-1.56,1.26-2.84,3.34-2.84.98,0,1.84.28,2.38.6l-.44,1.28c-.38-.24-1.08-.56-1.98-.56-1.04,0-1.62.6-1.62,1.32,0,.8.58,1.16,1.84,1.64,1.68.64,2.54,1.48,2.54,2.92,0,1.7-1.32,2.9-3.62,2.9-1.06,0-2.04-.26-2.72-.66l.44-1.34Z"/>
  </g>
  <g>
    <path class="cls-10" d="M1054.14,77.13c-.64.32-1.92.64-3.56.64-3.8,0-6.66-2.4-6.66-6.82s2.86-7.08,7.04-7.08c1.68,0,2.74.36,3.2.6l-.42,1.42c-.66-.32-1.6-.56-2.72-.56-3.16,0-5.26,2.02-5.26,5.56,0,3.3,1.9,5.42,5.18,5.42,1.06,0,2.14-.22,2.84-.56l.36,1.38Z"/>
    <path class="cls-10" d="M1064.8,72.65c0,3.58-2.48,5.14-4.82,5.14-2.62,0-4.64-1.92-4.64-4.98,0-3.24,2.12-5.14,4.8-5.14s4.66,2.02,4.66,4.98ZM1057.12,72.75c0,2.12,1.22,3.72,2.94,3.72s2.94-1.58,2.94-3.76c0-1.64-.82-3.72-2.9-3.72s-2.98,1.92-2.98,3.76Z"/>
    <path class="cls-10" d="M1067.02,71.04c0-1.24-.04-2.24-.08-3.16h1.58l.08,1.66h.04c.72-1.18,1.86-1.88,3.44-1.88,2.34,0,4.1,1.98,4.1,4.92,0,3.48-2.12,5.2-4.4,5.2-1.28,0-2.4-.56-2.98-1.52h-.04v5.26h-1.74v-10.48ZM1068.76,73.63c0,.26.04.5.08.72.32,1.22,1.38,2.06,2.64,2.06,1.86,0,2.94-1.52,2.94-3.74,0-1.94-1.02-3.6-2.88-3.6-1.2,0-2.32.86-2.66,2.18-.06.22-.12.48-.12.72v1.66Z"/>
    <path class="cls-10" d="M1078.9,67.88l2.12,5.72c.22.64.46,1.4.62,1.98h.04c.18-.58.38-1.32.62-2.02l1.92-5.68h1.86l-2.64,6.9c-1.26,3.32-2.12,5.02-3.32,6.06-.86.76-1.72,1.06-2.16,1.14l-.44-1.48c.44-.14,1.02-.42,1.54-.86.48-.38,1.08-1.06,1.48-1.96.08-.18.14-.32.14-.42s-.04-.24-.12-.46l-3.58-8.92h1.92Z"/>
  </g>
  <rect class="cls-2" x="1178.34" y="93.31" width="26.31" height="402.3"/>
  <g>
    <path class="cls-10" d="M1171.94,68.04h7.26v1.46h-5.52v4.48h5.1v1.44h-5.1v6.1h-1.74v-13.48Z"/>
    <path class="cls-10" d="M1183.06,69.12c.02.6-.42,1.08-1.12,1.08-.62,0-1.06-.48-1.06-1.08s.46-1.1,1.1-1.1,1.08.48,1.08,1.1ZM1181.1,81.53v-9.68h1.76v9.68h-1.76Z"/>
    <path class="cls-10" d="M1185.78,74.46c0-1-.02-1.82-.08-2.62h1.56l.1,1.6h.04c.48-.92,1.6-1.82,3.2-1.82,1.34,0,3.42.8,3.42,4.12v5.78h-1.76v-5.58c0-1.56-.58-2.86-2.24-2.86-1.16,0-2.06.82-2.36,1.8-.08.22-.12.52-.12.82v5.82h-1.76v-7.06Z"/>
    <path class="cls-10" d="M1202.24,81.53l-.14-1.22h-.06c-.54.76-1.58,1.44-2.96,1.44-1.96,0-2.96-1.38-2.96-2.78,0-2.34,2.08-3.62,5.82-3.6v-.2c0-.8-.22-2.24-2.2-2.24-.9,0-1.84.28-2.52.72l-.4-1.16c.8-.52,1.96-.86,3.18-.86,2.96,0,3.68,2.02,3.68,3.96v3.62c0,.84.04,1.66.16,2.32h-1.6ZM1201.98,76.59c-1.92-.04-4.1.3-4.1,2.18,0,1.14.76,1.68,1.66,1.68,1.26,0,2.06-.8,2.34-1.62.06-.18.1-.38.1-.56v-1.68Z"/>
    <path class="cls-10" d="M1206.52,67.32h1.76v14.2h-1.76v-14.2Z"/>
  </g>
  <g>
    <path class="cls-10" d="M1167.9,513.82c.88-.18,2.14-.28,3.34-.28,1.86,0,3.06.34,3.9,1.1.68.6,1.06,1.52,1.06,2.56,0,1.78-1.12,2.96-2.54,3.44v.06c1.04.36,1.66,1.32,1.98,2.72.44,1.88.76,3.18,1.04,3.7h-1.8c-.22-.38-.52-1.54-.9-3.22-.4-1.86-1.12-2.56-2.7-2.62h-1.64v5.84h-1.74v-13.3ZM1169.64,519.96h1.78c1.86,0,3.04-1.02,3.04-2.56,0-1.74-1.26-2.5-3.1-2.52-.84,0-1.44.08-1.72.16v4.92Z"/>
    <path class="cls-10" d="M1179.66,522.6c.04,2.38,1.56,3.36,3.32,3.36,1.26,0,2.02-.22,2.68-.5l.3,1.26c-.62.28-1.68.6-3.22.6-2.98,0-4.76-1.96-4.76-4.88s1.72-5.22,4.54-5.22c3.16,0,4,2.78,4,4.56,0,.36-.04.64-.06.82h-6.8ZM1184.82,521.34c.02-1.12-.46-2.86-2.44-2.86-1.78,0-2.56,1.64-2.7,2.86h5.14Z"/>
    <path class="cls-10" d="M1188.46,525.32c.52.34,1.44.7,2.32.7,1.28,0,1.88-.64,1.88-1.44,0-.84-.5-1.3-1.8-1.78-1.74-.62-2.56-1.58-2.56-2.74,0-1.56,1.26-2.84,3.34-2.84.98,0,1.84.28,2.38.6l-.44,1.28c-.38-.24-1.08-.56-1.98-.56-1.04,0-1.62.6-1.62,1.32,0,.8.58,1.16,1.84,1.64,1.68.64,2.54,1.48,2.54,2.92,0,1.7-1.32,2.9-3.62,2.9-1.06,0-2.04-.26-2.72-.66l.44-1.34Z"/>
    <path class="cls-10" d="M1204.72,524.48c0,1,.02,1.88.08,2.64h-1.56l-.1-1.58h-.04c-.46.78-1.48,1.8-3.2,1.8-1.52,0-3.34-.84-3.34-4.24v-5.66h1.76v5.36c0,1.84.56,3.08,2.16,3.08,1.18,0,2-.82,2.32-1.6.1-.26.16-.58.16-.9v-5.94h1.76v7.04Z"/>
    <path class="cls-10" d="M1207.64,512.92h1.76v14.2h-1.76v-14.2Z"/>
    <path class="cls-10" d="M1214.48,514.66v2.78h2.52v1.34h-2.52v5.22c0,1.2.34,1.88,1.32,1.88.46,0,.8-.06,1.02-.12l.08,1.32c-.34.14-.88.24-1.56.24-.82,0-1.48-.26-1.9-.74-.5-.52-.68-1.38-.68-2.52v-5.28h-1.5v-1.34h1.5v-2.32l1.72-.46Z"/>
  </g>
  <g>
    <line class="cls-9" x1="1178.34" y1="193.89" x2="1180.34" y2="193.89"/>
    <line class="cls-8" x1="1184.8" y1="193.89" x2="1200.42" y2="193.89"/>
    <line class="cls-9" x1="1202.65" y1="193.89" x2="1204.65" y2="193.89"/>
  </g>
  <g>
    <line class="cls-9" x1="1178.34" y1="294.46" x2="1180.34" y2="294.46"/>
    <line class="cls-8" x1="1184.8" y1="294.46" x2="1200.42" y2="294.46"/>
    <line class="cls-9" x1="1202.65" y1="294.46" x2="1204.65" y2="294.46"/>
  </g>
  <g>
    <line class="cls-9" x1="1178.34" y1="395.04" x2="1180.34" y2="395.04"/>
    <line class="cls-8" x1="1184.8" y1="395.04" x2="1200.42" y2="395.04"/>
    <line class="cls-9" x1="1202.65" y1="395.04" x2="1204.65" y2="395.04"/>
  </g>
  <g>
    <line class="cls-9" x1="1086.08" y1="143.35" x2="1161.86" y2="143.35"/>
    <path class="cls-10" d="M1167.9,143.35c-2.84,1.05-6.36,2.85-8.55,4.76l1.72-4.76-1.72-4.75c2.18,1.9,5.71,3.7,8.55,4.75Z"/>
  </g>
  <g>
    <line class="cls-9" x1="1086.08" y1="259.92" x2="1161.93" y2="248.56"/>
    <path class="cls-10" d="M1167.9,247.67c-2.65,1.46-5.87,3.76-7.75,5.97l1-4.96-2.41-4.45c2.44,1.56,6.19,2.82,9.16,3.44Z"/>
  </g>
  <g>
    <line class="cls-9" x1="1086.08" y1="376.5" x2="1162.18" y2="350.92"/>
    <path class="cls-10" d="M1167.9,349c-2.36,1.9-5.12,4.73-6.59,7.23l.12-5.06-3.15-3.96c2.68,1.11,6.59,1.69,9.62,1.78Z"/>
  </g>
  <g>
    <line class="cls-9" x1="1086.08" y1="495.36" x2="1162.67" y2="451.34"/>
    <path class="cls-10" d="M1167.9,448.33c-1.94,2.33-4.1,5.64-5.04,8.38l-.88-4.98-3.86-3.27c2.84.56,6.79.37,9.78-.14Z"/>
  </g>
  <g>
    <path class="cls-10" d="M1076.23,591.68c-.1-1.88-.22-4.14-.2-5.82h-.06c-.46,1.58-1.02,3.26-1.7,5.12l-2.38,6.54h-1.32l-2.18-6.42c-.64-1.9-1.18-3.64-1.56-5.24h-.04c-.04,1.68-.14,3.94-.26,5.96l-.36,5.78h-1.66l.94-13.48h2.22l2.3,6.52c.56,1.66,1.02,3.14,1.36,4.54h.06c.34-1.36.82-2.84,1.42-4.54l2.4-6.52h2.22l.84,13.48h-1.7l-.34-5.92Z"/>
    <path class="cls-10" d="M1080.94,584.28c.84-.14,1.94-.26,3.34-.26,1.72,0,2.98.4,3.78,1.12.74.64,1.18,1.62,1.18,2.82s-.36,2.18-1.04,2.88c-.92.98-2.42,1.48-4.12,1.48-.52,0-1-.02-1.4-.12v5.4h-1.74v-13.32ZM1082.68,590.78c.38.1.86.14,1.44.14,2.1,0,3.38-1.02,3.38-2.88s-1.26-2.64-3.18-2.64c-.76,0-1.34.06-1.64.14v5.24Z"/>
    <path class="cls-10" d="M1093.33,584.12v13.48h-1.74v-13.48h1.74Z"/>
    <path class="cls-10" d="M1104.85,599.1v1h-10v-1h10Z"/>
    <path class="cls-10" d="M1116.63,597c-.78.28-2.32.74-4.14.74-2.04,0-3.72-.52-5.04-1.78-1.16-1.12-1.88-2.92-1.88-5.02.02-4.02,2.78-6.96,7.3-6.96,1.56,0,2.78.34,3.36.62l-.42,1.42c-.72-.32-1.62-.58-2.98-.58-3.28,0-5.42,2.04-5.42,5.42s2.06,5.44,5.2,5.44c1.14,0,1.92-.16,2.32-.36v-4.02h-2.74v-1.4h4.44v6.48Z"/>
    <path class="cls-10" d="M1124.75,597.6l-.14-1.22h-.06c-.54.76-1.58,1.44-2.96,1.44-1.96,0-2.96-1.38-2.96-2.78,0-2.34,2.08-3.62,5.82-3.6v-.2c0-.8-.22-2.24-2.2-2.24-.9,0-1.84.28-2.52.72l-.4-1.16c.8-.52,1.96-.86,3.18-.86,2.96,0,3.68,2.02,3.68,3.96v3.62c0,.84.04,1.66.16,2.32h-1.6ZM1124.49,592.66c-1.92-.04-4.1.3-4.1,2.18,0,1.14.76,1.68,1.66,1.68,1.26,0,2.06-.8,2.34-1.62.06-.18.1-.38.1-.56v-1.68Z"/>
    <path class="cls-10" d="M1131.06,585.14v2.78h2.52v1.34h-2.52v5.22c0,1.2.34,1.88,1.32,1.88.46,0,.8-.06,1.02-.12l.08,1.32c-.34.14-.88.24-1.56.24-.82,0-1.48-.26-1.9-.74-.5-.52-.68-1.38-.68-2.52v-5.28h-1.5v-1.34h1.5v-2.32l1.72-.46Z"/>
    <path class="cls-10" d="M1135.56,583.4h1.76v6.04h.04c.28-.5.72-.94,1.26-1.24.52-.3,1.14-.5,1.8-.5,1.3,0,3.38.8,3.38,4.14v5.76h-1.76v-5.56c0-1.56-.58-2.88-2.24-2.88-1.14,0-2.04.8-2.36,1.76-.1.24-.12.5-.12.84v5.84h-1.76v-14.2Z"/>
    <path class="cls-10" d="M1147.64,593.08c.04,2.38,1.56,3.36,3.32,3.36,1.26,0,2.02-.22,2.68-.5l.3,1.26c-.62.28-1.68.6-3.22.6-2.98,0-4.76-1.96-4.76-4.88s1.72-5.22,4.54-5.22c3.16,0,4,2.78,4,4.56,0,.36-.04.64-.06.82h-6.8ZM1152.81,591.82c.02-1.12-.46-2.86-2.44-2.86-1.78,0-2.56,1.64-2.7,2.86h5.14Z"/>
    <path class="cls-10" d="M1156.68,590.94c0-1.14-.02-2.12-.08-3.02h1.54l.06,1.9h.08c.44-1.3,1.5-2.12,2.68-2.12.2,0,.34.02.5.06v1.66c-.18-.04-.36-.06-.6-.06-1.24,0-2.12.94-2.36,2.26-.04.24-.08.52-.08.82v5.16h-1.74v-6.66Z"/>
    <path class="cls-10" d="M1164.4,587.92l1.9,5.44c.32.88.58,1.68.78,2.48h.06c.22-.8.5-1.6.82-2.48l1.88-5.44h1.84l-3.8,9.68h-1.68l-3.68-9.68h1.88Z"/>
    <path class="cls-10" d="M1177.16,583.72c-1.46,1.96-2.52,4.56-2.52,8.18s1.1,6.12,2.52,8.12h-1.38c-1.26-1.66-2.62-4.22-2.62-8.12.02-3.94,1.36-6.5,2.62-8.18h1.38Z"/>
    <path class="cls-10" d="M1178.6,596.56c0-.74.5-1.26,1.2-1.26s1.18.52,1.18,1.26-.46,1.26-1.2,1.26c-.7,0-1.18-.54-1.18-1.26Z"/>
    <path class="cls-10" d="M1182.74,596.56c0-.74.5-1.26,1.2-1.26s1.18.52,1.18,1.26-.46,1.26-1.2,1.26c-.7,0-1.18-.54-1.18-1.26Z"/>
    <path class="cls-10" d="M1186.88,596.56c0-.74.5-1.26,1.2-1.26s1.18.52,1.18,1.26-.46,1.26-1.2,1.26c-.7,0-1.18-.54-1.18-1.26Z"/>
    <path class="cls-10" d="M1190.38,600.02c1.42-1.98,2.52-4.58,2.52-8.18s-1.08-6.14-2.52-8.12h1.36c1.28,1.64,2.62,4.2,2.62,8.14s-1.34,6.46-2.62,8.16h-1.36Z"/>
  </g>
  <g>
    <path class="cls-10" d="M931.46,26.35c-.1-1.88-.22-4.14-.2-5.82h-.06c-.46,1.58-1.02,3.26-1.7,5.12l-2.38,6.54h-1.32l-2.18-6.42c-.64-1.9-1.18-3.64-1.56-5.24h-.04c-.04,1.68-.14,3.94-.26,5.96l-.36,5.78h-1.66l.94-13.48h2.22l2.3,6.52c.56,1.66,1.02,3.14,1.36,4.54h.06c.34-1.36.82-2.84,1.42-4.54l2.4-6.52h2.22l.84,13.48h-1.7l-.34-5.92Z"/>
    <path class="cls-10" d="M936.18,18.95c.84-.14,1.94-.26,3.34-.26,1.72,0,2.98.4,3.78,1.12.74.64,1.18,1.62,1.18,2.82s-.36,2.18-1.04,2.88c-.92.98-2.42,1.48-4.12,1.48-.52,0-1-.02-1.4-.12v5.4h-1.74v-13.32ZM937.92,25.45c.38.1.86.14,1.44.14,2.1,0,3.38-1.02,3.38-2.88s-1.26-2.64-3.18-2.64c-.76,0-1.34.06-1.64.14v5.24Z"/>
    <path class="cls-10" d="M948.56,18.79v13.48h-1.74v-13.48h1.74Z"/>
    <path class="cls-10" d="M960.08,33.77v1h-10v-1h10Z"/>
    <path class="cls-10" d="M961.6,18.97c.76-.16,1.96-.28,3.18-.28,1.74,0,2.86.3,3.7.98.7.52,1.12,1.32,1.12,2.38,0,1.3-.86,2.44-2.28,2.96v.04c1.28.32,2.78,1.38,2.78,3.38,0,1.16-.46,2.04-1.14,2.7-.94.86-2.46,1.26-4.66,1.26-1.2,0-2.12-.08-2.7-.16v-13.26ZM963.34,24.49h1.58c1.84,0,2.92-.96,2.92-2.26,0-1.58-1.2-2.2-2.96-2.2-.8,0-1.26.06-1.54.12v4.34ZM963.34,30.95c.34.06.84.08,1.46.08,1.8,0,3.46-.66,3.46-2.62,0-1.84-1.58-2.6-3.48-2.6h-1.44v5.14Z"/>
    <path class="cls-10" d="M979.36,31.91c-.46.24-1.48.56-2.78.56-2.92,0-4.82-1.98-4.82-4.94s2.04-5.14,5.2-5.14c1.04,0,1.96.26,2.44.5l-.4,1.36c-.42-.24-1.08-.46-2.04-.46-2.22,0-3.42,1.64-3.42,3.66,0,2.24,1.44,3.62,3.36,3.62,1,0,1.66-.26,2.16-.48l.3,1.32Z"/>
    <path class="cls-10" d="M986.78,32.27l-.14-1.22h-.06c-.54.76-1.58,1.44-2.96,1.44-1.96,0-2.96-1.38-2.96-2.78,0-2.34,2.08-3.62,5.82-3.6v-.2c0-.8-.22-2.24-2.2-2.24-.9,0-1.84.28-2.52.72l-.4-1.16c.8-.52,1.96-.86,3.18-.86,2.96,0,3.68,2.02,3.68,3.96v3.62c0,.84.04,1.66.16,2.32h-1.6ZM986.52,27.33c-1.92-.04-4.1.3-4.1,2.18,0,1.14.76,1.68,1.66,1.68,1.26,0,2.06-.8,2.34-1.62.06-.18.1-.38.1-.56v-1.68Z"/>
    <path class="cls-10" d="M990.82,30.47c.52.34,1.44.7,2.32.7,1.28,0,1.88-.64,1.88-1.44,0-.84-.5-1.3-1.8-1.78-1.74-.62-2.56-1.58-2.56-2.74,0-1.56,1.26-2.84,3.34-2.84.98,0,1.84.28,2.38.6l-.44,1.28c-.38-.24-1.08-.56-1.98-.56-1.04,0-1.62.6-1.62,1.32,0,.8.58,1.16,1.84,1.64,1.68.64,2.54,1.48,2.54,2.92,0,1.7-1.32,2.9-3.62,2.9-1.06,0-2.04-.26-2.72-.66l.44-1.34Z"/>
    <path class="cls-10" d="M1001.1,19.81v2.78h2.52v1.34h-2.52v5.22c0,1.2.34,1.88,1.32,1.88.46,0,.8-.06,1.02-.12l.08,1.32c-.34.14-.88.24-1.56.24-.82,0-1.48-.26-1.9-.74-.5-.52-.68-1.38-.68-2.52v-5.28h-1.5v-1.34h1.5v-2.32l1.72-.46Z"/>
    <path class="cls-10" d="M1009.42,18.39c-1.46,1.96-2.52,4.56-2.52,8.18s1.1,6.12,2.52,8.12h-1.38c-1.26-1.66-2.62-4.22-2.62-8.12.02-3.94,1.36-6.5,2.62-8.18h1.38Z"/>
    <path class="cls-10" d="M1010.86,31.23c0-.74.5-1.26,1.2-1.26s1.18.52,1.18,1.26-.46,1.26-1.2,1.26c-.7,0-1.18-.54-1.18-1.26Z"/>
    <path class="cls-10" d="M1015,31.23c0-.74.5-1.26,1.2-1.26s1.18.52,1.18,1.26-.46,1.26-1.2,1.26c-.7,0-1.18-.54-1.18-1.26Z"/>
    <path class="cls-10" d="M1019.13,31.23c0-.74.5-1.26,1.2-1.26s1.18.52,1.18,1.26-.46,1.26-1.2,1.26c-.7,0-1.18-.54-1.18-1.26Z"/>
    <path class="cls-10" d="M1022.63,34.69c1.42-1.98,2.52-4.58,2.52-8.18s-1.08-6.14-2.52-8.12h1.36c1.28,1.64,2.62,4.2,2.62,8.14s-1.34,6.46-2.62,8.16h-1.36Z"/>
  </g>
</svg>