<svg xmlns="http://www.w3.org/2000/svg" viewBox="0 0 257.03 304.9"><defs><style>.cls-1{fill:#c6c6c6;}.cls-1,.cls-3,.cls-5,.cls-6,.cls-7{stroke:#1d1d1b;stroke-miterlimit:10;}.cls-1,.cls-5,.cls-6,.cls-7{stroke-width:2px;}.cls-2{font-size:40px;font-family:MyriadPro-Regular, Myriad Pro;}.cls-2,.cls-4{fill:#1d1d1b;}.cls-3,.cls-5,.cls-6,.cls-7{fill:none;}.cls-3{stroke-width:4px;}.cls-6{stroke-dasharray:5.87 5.87;}.cls-7{stroke-dasharray:5 5;}</style></defs><title>Resurs 3</title><g id="Lager_2" data-name="Lager 2"><g id="Lager_1-2" data-name="Lager 1"><rect class="cls-1" x="53.28" y="112.9" width="45.64" height="45.64"/><text class="cls-2" transform="translate(66.04 148.38)">0</text><line class="cls-3" x1="76.1" y1="87.06" x2="76.1" y2="55.53"/><polygon class="cls-4" points="76.1 101.18 84.23 81.29 76.1 86.01 67.97 81.29 76.1 101.18"/><path class="cls-4" d="M83.62,55.91a7.52,7.52,0,1,0-7.52,7.52A7.52,7.52,0,0,0,83.62,55.91Z"/><rect class="cls-1" x="98.92" y="112.9" width="45.64" height="45.64"/><text class="cls-2" transform="translate(111.67 148.38)">1</text><rect class="cls-1" x="144.55" y="112.9" width="45.64" height="45.64"/><text class="cls-2" transform="translate(157.31 148.38)">2</text><rect class="cls-1" x="190.19" y="112.9" width="45.64" height="45.64"/><text class="cls-2" transform="translate(202.95 148.38)">3</text><text class="cls-2" transform="translate(0 148.16)">a[]</text><text class="cls-2" transform="translate(115.76 33.48)">b</text><text class="cls-2" transform="translate(157.31 33.48)">c</text><text class="cls-2" transform="translate(68.1 33.48)">a</text><line class="cls-3" x1="101.47" y1="88.99" x2="121.61" y2="54.55"/><polygon class="cls-4" points="94.34 101.18 111.4 88.11 102 88.08 97.37 79.9 94.34 101.18"/><path class="cls-4" d="M127.91,58.67a7.52,7.52,0,1,0-10.29,2.7A7.51,7.51,0,0,0,127.91,58.67Z"/><line class="cls-3" x1="167.37" y1="87.06" x2="167.37" y2="55.53"/><polygon class="cls-4" points="167.37 101.18 175.5 81.29 167.37 86.01 159.24 81.29 167.37 101.18"/><path class="cls-4" d="M174.89,55.91a7.52,7.52,0,1,0-7.52,7.52A7.51,7.51,0,0,0,174.89,55.91Z"/><polyline class="cls-5" points="93.28 150.4 93.28 152.9 90.78 152.9"/><line class="cls-6" x1="84.91" y1="152.9" x2="64.35" y2="152.9"/><polyline class="cls-5" points="61.42 152.9 58.92 152.9 58.92 150.4"/><line class="cls-6" x1="58.92" y1="144.53" x2="58.92" y2="123.98"/><polyline class="cls-5" points="58.92 121.04 58.92 118.54 61.42 118.54"/><line class="cls-6" x1="67.29" y1="118.54" x2="87.84" y2="118.54"/><polyline class="cls-5" points="90.78 118.54 93.28 118.54 93.28 121.04"/><line class="cls-6" x1="93.28" y1="126.91" x2="93.28" y2="147.46"/><line class="cls-7" x1="76.1" y1="152.9" x2="76.1" y2="209.91"/><text class="cls-2" transform="translate(49.31 246.9)">a[0]<tspan x="0" y="48">b[0]</tspan></text><text class="cls-2" transform="translate(170.31 256.55)">&amp;a[0]</text><line class="cls-3" x1="213.01" y1="179.78" x2="213.01" y2="210.82"/><polygon class="cls-4" points="213.01 165.66 204.88 185.56 213.01 180.84 221.14 185.56 213.01 165.66"/><path class="cls-4" d="M205.49,210.44a7.52,7.52,0,1,0,7.52-7.52A7.52,7.52,0,0,0,205.49,210.44Z"/></g></g></svg>